ExploreSansMonoVariable-Normal.ufo
<glyph name="exclam" format="2">
  <advance width="612"/>
  <unicode hex="0021"/>
  <outline>
    <contour>
      <point x="232" y="715" type="line"/>
      <point x="332" y="715" type="line"/>
      <point x="319" y="206" type="line"/>
      <point x="241" y="206" type="line"/>
    </contour>
    <contour>
      <point x="280" y="118" type="curve" smooth="yes"/>
      <point x="321" y="118"/>
      <point x="343" y="85"/>
      <point x="343" y="54" type="curve" smooth="yes"/>
      <point x="343" y="21"/>
      <point x="320" y="-8"/>
      <point x="280" y="-8" type="curve" smooth="yes"/>
      <point x="240" y="-8"/>
      <point x="217" y="21"/>
      <point x="217" y="54" type="curve" smooth="yes"/>
      <point x="217" y="85"/>
      <point x="239" y="118"/>
    </contour>
  </outline>
</glyph>
<glyph name="quotedbl" format="2">
  <advance width="600"/>
  <unicode hex="0022"/>
  <outline>
    <contour>
      <point x="121" y="772" type="line"/>
      <point x="217" y="772" type="line"/>
      <point x="206" y="434" type="line"/>
      <point x="132" y="434" type="line"/>
    </contour>
    <contour>
      <point x="383" y="772" type="line"/>
      <point x="479" y="772" type="line"/>
      <point x="468" y="434" type="line"/>
      <point x="394" y="434" type="line"/>
    </contour>
  </outline>
</glyph>
<glyph name="numbersign" format="2">
  <advance width="600"/>
  <unicode hex="0023"/>
  <outline>
    <contour>
      <point x="252" y="724" type="line"/>
      <point x="335" y="724" type="line"/>
      <point x="277" y="520" type="line"/>
      <point x="412" y="520" type="line"/>
      <point x="470" y="724" type="line"/>
      <point x="553" y="724" type="line"/>
      <point x="495" y="520" type="line"/>
      <point x="569" y="520" type="line"/>
      <point x="569" y="452" type="line"/>
      <point x="476" y="452" type="line"/>
      <point x="426" y="274" type="line"/>
      <point x="569" y="274" type="line"/>
      <point x="569" y="206" type="line"/>
      <point x="406" y="206" type="line"/>
      <point x="348" y="0" type="line"/>
      <point x="265" y="0" type="line"/>
      <point x="323" y="206" type="line"/>
      <point x="188" y="206" type="line"/>
      <point x="130" y="0" type="line"/>
      <point x="47" y="0" type="line"/>
      <point x="105" y="206" type="line"/>
      <point x="31" y="206" type="line"/>
      <point x="31" y="274" type="line"/>
      <point x="125" y="274" type="line"/>
      <point x="175" y="452" type="line"/>
      <point x="31" y="452" type="line"/>
      <point x="31" y="520" type="line"/>
      <point x="194" y="520" type="line"/>
    </contour>
    <contour>
      <point x="343" y="274" type="line"/>
      <point x="393" y="452" type="line"/>
      <point x="258" y="452" type="line"/>
      <point x="208" y="274" type="line"/>
    </contour>
  </outline>
</glyph>
<glyph name="percent" format="2">
  <advance width="600"/>
  <unicode hex="0025"/>
  <outline>
    <contour>
      <point x="512" y="561" type="line"/>
      <point x="550" y="518" type="line"/>
      <point x="89" y="146" type="line"/>
      <point x="50" y="190" type="line"/>
    </contour>
    <contour>
      <point x="429" y="322" type="curve" smooth="yes"/>
      <point x="519" y="322"/>
      <point x="578" y="256"/>
      <point x="578" y="157" type="curve" smooth="yes"/>
      <point x="578" y="58"/>
      <point x="519" y="-8"/>
      <point x="429" y="-8" type="curve" smooth="yes"/>
      <point x="339" y="-8"/>
      <point x="280" y="58"/>
      <point x="280" y="157" type="curve" smooth="yes"/>
      <point x="280" y="256"/>
      <point x="339" y="322"/>
    </contour>
    <contour>
      <point x="428" y="262" type="curve" smooth="yes"/>
      <point x="375" y="262"/>
      <point x="349" y="227"/>
      <point x="349" y="155" type="curve" smooth="yes"/>
      <point x="349" y="87"/>
      <point x="375" y="52"/>
      <point x="429" y="52" type="curve" smooth="yes"/>
      <point x="483" y="52"/>
      <point x="509" y="87"/>
      <point x="509" y="155" type="curve" smooth="yes"/>
      <point x="509" y="186"/>
      <point x="502" y="262"/>
    </contour>
    <contour>
      <point x="170" y="656" type="curve" smooth="yes"/>
      <point x="118" y="656"/>
      <point x="91" y="620"/>
      <point x="91" y="549" type="curve" smooth="yes"/>
      <point x="91" y="481"/>
      <point x="118" y="446"/>
      <point x="171" y="446" type="curve" smooth="yes"/>
      <point x="224" y="446"/>
      <point x="251" y="481"/>
      <point x="251" y="550" type="curve" smooth="yes"/>
      <point x="251" y="584"/>
      <point x="242" y="656"/>
    </contour>
    <contour>
      <point x="171" y="716" type="curve" smooth="yes"/>
      <point x="261" y="716"/>
      <point x="320" y="650"/>
      <point x="320" y="551" type="curve" smooth="yes"/>
      <point x="320" y="453"/>
      <point x="262" y="385"/>
      <point x="171" y="385" type="curve" smooth="yes"/>
      <point x="80" y="385"/>
      <point x="22" y="453"/>
      <point x="22" y="551" type="curve" smooth="yes"/>
      <point x="22" y="650"/>
      <point x="81" y="716"/>
    </contour>
  </outline>
</glyph>
<glyph name="ampersand" format="2">
  <advance width="600"/>
  <unicode hex="0026"/>
  <outline>
    <contour>
      <point x="299" y="716" type="curve" smooth="yes"/>
      <point x="345" y="716"/>
      <point x="380" y="709"/>
      <point x="436" y="681" type="curve"/>
      <point x="410" y="622" type="line"/>
      <point x="375" y="639"/>
      <point x="347" y="652"/>
      <point x="302" y="652" type="curve" smooth="yes"/>
      <point x="234" y="652"/>
      <point x="209" y="613"/>
      <point x="209" y="567" type="curve" smooth="yes"/>
      <point x="209" y="566"/>
      <point x="209" y="566"/>
      <point x="209" y="565" type="curve" smooth="yes"/>
      <point x="209" y="509"/>
      <point x="241" y="462"/>
      <point x="273" y="421" type="curve"/>
      <point x="586" y="0" type="line"/>
      <point x="493" y="0" type="line"/>
      <point x="213" y="379" type="line"/>
      <point x="163" y="447"/>
      <point x="129" y="500"/>
      <point x="129" y="564" type="curve" smooth="yes"/>
      <point x="129" y="564"/>
      <point x="129" y="565"/>
      <point x="129" y="566" type="curve" smooth="yes"/>
      <point x="129" y="638"/>
      <point x="174" y="716"/>
    </contour>
    <contour>
      <point x="242" y="447" type="line"/>
      <point x="242" y="385" type="line"/>
      <point x="222" y="385" type="line" smooth="yes"/>
      <point x="152" y="385"/>
      <point x="93" y="331"/>
      <point x="93" y="225" type="curve" smooth="yes"/>
      <point x="93" y="224"/>
      <point x="93" y="222"/>
      <point x="93" y="221" type="curve" smooth="yes"/>
      <point x="93" y="116"/>
      <point x="144" y="53"/>
      <point x="224" y="53" type="curve" smooth="yes"/>
      <point x="293" y="53"/>
      <point x="351" y="87"/>
      <point x="373" y="175" type="curve" smooth="yes"/>
      <point x="433" y="416" type="line"/>
      <point x="567" y="405" type="line"/>
      <point x="567" y="342" type="line"/>
      <point x="488" y="348" type="line"/>
      <point x="433" y="153" type="line"/>
      <point x="409" y="59"/>
      <point x="334" y="-8"/>
      <point x="224" y="-8" type="curve" smooth="yes"/>
      <point x="96" y="-8"/>
      <point x="21" y="90"/>
      <point x="21" y="221" type="curve" smooth="yes"/>
      <point x="21" y="222"/>
      <point x="21" y="224"/>
      <point x="21" y="225" type="curve" smooth="yes"/>
      <point x="21" y="368"/>
      <point x="128" y="447"/>
      <point x="205" y="447" type="curve" smooth="yes"/>
    </contour>
  </outline>
</glyph>
<glyph name="quotesingle" format="2">
  <advance width="640"/>
  <unicode hex="0027"/>
  <outline>
    <contour>
      <point x="136" y="772" type="line"/>
      <point x="264" y="772" type="line"/>
      <point x="264" y="691" type="line"/>
      <point x="208" y="520" type="line"/>
      <point x="148" y="520" type="line"/>
      <point x="189" y="708" type="line"/>
      <point x="136" y="708" type="line"/>
    </contour>
  </outline>
</glyph>
<glyph name="parenleft" format="2">
  <advance width="576"/>
  <unicode hex="0028"/>
  <outline>
    <contour>
      <point x="422" y="800" type="curve"/>
      <point x="434" y="733" type="line"/>
      <point x="261" y="695"/>
      <point x="181" y="562"/>
      <point x="181" y="381" type="curve" smooth="yes"/>
      <point x="181" y="208"/>
      <point x="257" y="35"/>
      <point x="433" y="0" type="curve"/>
      <point x="418" y="-63" type="line"/>
      <point x="195" y="-22"/>
      <point x="103" y="187"/>
      <point x="103" y="382" type="curve" smooth="yes"/>
      <point x="103" y="592"/>
      <point x="192" y="743"/>
    </contour>
  </outline>
</glyph>
<glyph name="parenright" format="2">
  <advance width="576"/>
  <unicode hex="0029"/>
  <outline>
    <contour>
      <point x="103" y="800" type="line"/>
      <point x="367" y="800"/>
      <point x="484" y="618"/>
      <point x="484" y="370" type="curve" smooth="yes"/>
      <point x="484" y="98"/>
      <point x="381" y="-64"/>
      <point x="103" y="-64" type="curve"/>
      <point x="103" y="0" type="line"/>
      <point x="350" y="0"/>
      <point x="406" y="154"/>
      <point x="406" y="369" type="curve" smooth="yes"/>
      <point x="406" y="569"/>
      <point x="339" y="736"/>
      <point x="103" y="736" type="curve"/>
    </contour>
  </outline>
</glyph>
<glyph name="asterisk" format="2">
  <advance width="600"/>
  <unicode hex="002A"/>
  <outline>
    <contour>
      <point x="267" y="806" type="line"/>
      <point x="345" y="806" type="line"/>
      <point x="345" y="684" type="line"/>
      <point x="339" y="637" type="line"/>
      <point x="382" y="659" type="line"/>
      <point x="496" y="696" type="line"/>
      <point x="520" y="628" type="line"/>
      <point x="406" y="591" type="line"/>
      <point x="352" y="585" type="line"/>
      <point x="392" y="545" type="line"/>
      <point x="460" y="445" type="line"/>
      <point x="404" y="406" type="line"/>
      <point x="335" y="504" type="line"/>
      <point x="307" y="549" type="line"/>
      <point x="278" y="504" type="line"/>
      <point x="208" y="406" type="line"/>
      <point x="152" y="445" type="line"/>
      <point x="219" y="545" type="line"/>
      <point x="260" y="585" type="line"/>
      <point x="206" y="591" type="line"/>
      <point x="93" y="628" type="line"/>
      <point x="116" y="696" type="line"/>
      <point x="231" y="659" type="line"/>
      <point x="273" y="637" type="line"/>
      <point x="267" y="684" type="line"/>
    </contour>
  </outline>
</glyph>
<glyph name="plus" format="2">
  <advance width="600"/>
  <unicode hex="002B"/>
  <outline>
    <contour>
      <point x="258" y="479" type="line"/>
      <point x="338" y="479" type="line"/>
      <point x="338" y="303" type="line"/>
      <point x="513" y="303" type="line"/>
      <point x="513" y="231" type="line"/>
      <point x="338" y="231" type="line"/>
      <point x="338" y="54" type="line"/>
      <point x="258" y="54" type="line"/>
      <point x="258" y="231" type="line"/>
      <point x="87" y="231" type="line"/>
      <point x="87" y="303" type="line"/>
      <point x="258" y="303" type="line"/>
    </contour>
  </outline>
</glyph>
<glyph name="comma" format="2">
  <advance width="600"/>
  <unicode hex="002C"/>
  <outline>
    <contour>
      <point x="246" y="74" type="line"/>
      <point x="246" y="88" type="line"/>
      <point x="123" y="105" type="line"/>
      <point x="123" y="167" type="line"/>
      <point x="316" y="141" type="line"/>
      <point x="316" y="74" type="line"/>
      <point x="246" y="-143" type="line"/>
      <point x="174" y="-143" type="line"/>
    </contour>
  </outline>
</glyph>
<glyph name="hyphen" format="2">
  <advance width="576"/>
  <unicode hex="002D"/>
  <outline>
    <contour>
      <point x="64" y="307" type="line"/>
      <point x="368" y="307" type="line"/>
      <point x="368" y="227" type="line"/>
      <point x="64" y="227" type="line"/>
    </contour>
  </outline>
</glyph>
<glyph name="period" format="2">
  <advance width="576"/>
  <unicode hex="002E"/>
  <outline>
    <contour>
      <point x="234" y="204" type="curve" smooth="yes"/>
      <point x="299" y="204"/>
      <point x="339" y="154"/>
      <point x="339" y="99" type="curve" smooth="yes"/>
      <point x="339" y="43"/>
      <point x="299" y="-8"/>
      <point x="234" y="-8" type="curve" smooth="yes"/>
      <point x="167" y="-8"/>
      <point x="132" y="47"/>
      <point x="132" y="99" type="curve" smooth="yes"/>
      <point x="132" y="151"/>
      <point x="167" y="204"/>
    </contour>
  </outline>
</glyph>
<glyph name="slash" format="2">
  <advance width="600"/>
  <unicode hex="002F"/>
  <outline>
    <contour>
      <point x="464" y="772" type="line"/>
      <point x="543" y="772" type="line"/>
      <point x="200" y="-34" type="line"/>
      <point x="121" y="-34" type="line"/>
    </contour>
  </outline>
</glyph>
<glyph name="zero" format="2">
  <advance width="612"/>
  <unicode hex="0030"/>
  <outline>
    <contour>
      <point x="305" y="651" type="curve" smooth="yes"/>
      <point x="214" y="651"/>
      <point x="144" y="599"/>
      <point x="144" y="358" type="curve" smooth="yes"/>
      <point x="144" y="157"/>
      <point x="190" y="57"/>
      <point x="304" y="57" type="curve" smooth="yes"/>
      <point x="421" y="57"/>
      <point x="468" y="158"/>
      <point x="468" y="360" type="curve" smooth="yes"/>
      <point x="468" y="615"/>
      <point x="382" y="651"/>
    </contour>
    <contour>
      <point x="305" y="716" type="curve" smooth="yes"/>
      <point x="478" y="716"/>
      <point x="548" y="577"/>
      <point x="548" y="360" type="curve" smooth="yes"/>
      <point x="548" y="121"/>
      <point x="468" y="-7"/>
      <point x="304" y="-7" type="curve" smooth="yes"/>
      <point x="143" y="-7"/>
      <point x="64" y="121"/>
      <point x="64" y="357" type="curve" smooth="yes"/>
      <point x="64" y="576"/>
      <point x="133" y="716"/>
    </contour>
  </outline>
</glyph>
<glyph name="one" format="2">
  <advance width="512"/>
  <unicode hex="0031"/>
  <outline>
    <contour>
      <point x="262" y="708" type="line"/>
      <point x="334" y="708" type="line"/>
      <point x="334" y="69" type="line"/>
      <point x="484" y="69" type="line"/>
      <point x="484" y="0" type="line"/>
      <point x="74" y="0" type="line"/>
      <point x="74" y="69" type="line"/>
      <point x="254" y="69" type="line"/>
      <point x="254" y="626" type="line"/>
      <point x="71" y="537" type="line"/>
      <point x="71" y="620" type="line"/>
    </contour>
  </outline>
</glyph>
<glyph name="two" format="2">
  <advance width="600"/>
  <unicode hex="0032"/>
  <outline>
    <contour>
      <point x="73" y="640" type="line"/>
      <point x="132" y="695"/>
      <point x="199" y="716"/>
      <point x="279" y="716" type="curve" smooth="yes"/>
      <point x="430" y="716"/>
      <point x="507" y="632"/>
      <point x="507" y="516" type="curve" smooth="yes"/>
      <point x="507" y="440"/>
      <point x="467" y="369"/>
      <point x="383" y="280" type="curve" smooth="yes"/>
      <point x="341" y="235"/>
      <point x="193" y="73"/>
      <point x="193" y="72" type="curve"/>
      <point x="527" y="72" type="line"/>
      <point x="527" y="0" type="line"/>
      <point x="84" y="0" type="line"/>
      <point x="84" y="71" type="line"/>
      <point x="327" y="325" type="line" smooth="yes"/>
      <point x="398" y="400"/>
      <point x="427" y="448"/>
      <point x="427" y="519" type="curve" smooth="yes"/>
      <point x="427" y="595"/>
      <point x="382" y="652"/>
      <point x="278" y="652" type="curve" smooth="yes"/>
      <point x="212" y="652"/>
      <point x="155" y="633"/>
      <point x="106" y="584" type="curve"/>
    </contour>
  </outline>
</glyph>
<glyph name="three" format="2">
  <advance width="600"/>
  <unicode hex="0033"/>
  <outline>
    <contour>
      <point x="98" y="708" type="line"/>
      <point x="508" y="708" type="line"/>
      <point x="508" y="645" type="line"/>
      <point x="311" y="430" type="line"/>
      <point x="456" y="427"/>
      <point x="544" y="348"/>
      <point x="544" y="220" type="curve" smooth="yes"/>
      <point x="544" y="158"/>
      <point x="513" y="-8"/>
      <point x="287" y="-8" type="curve" smooth="yes"/>
      <point x="200" y="-8"/>
      <point x="125" y="23"/>
      <point x="54" y="82" type="curve"/>
      <point x="87" y="138" type="line"/>
      <point x="146" y="83"/>
      <point x="206" y="56"/>
      <point x="281" y="56" type="curve" smooth="yes"/>
      <point x="402" y="56"/>
      <point x="464" y="106"/>
      <point x="464" y="222" type="curve" smooth="yes"/>
      <point x="464" y="316"/>
      <point x="407" y="366"/>
      <point x="299" y="366" type="curve" smooth="yes"/>
      <point x="243" y="366" type="line"/>
      <point x="235" y="429" type="line"/>
      <point x="416" y="644" type="line"/>
      <point x="98" y="644" type="line"/>
    </contour>
  </outline>
</glyph>
<glyph name="four" format="2">
  <advance width="640"/>
  <unicode hex="0034"/>
  <outline>
    <contour>
      <point x="363" y="708" type="line"/>
      <point x="446" y="708" type="line"/>
      <point x="132" y="234" type="line"/>
      <point x="470" y="234" type="line"/>
      <point x="470" y="484" type="line"/>
      <point x="550" y="484" type="line"/>
      <point x="550" y="0" type="line"/>
      <point x="470" y="0" type="line"/>
      <point x="470" y="164" type="line"/>
      <point x="52" y="164" type="line"/>
      <point x="52" y="234" type="line"/>
    </contour>
  </outline>
</glyph>
<glyph name="five" format="2">
  <advance width="600"/>
  <unicode hex="0035"/>
  <outline>
    <contour>
      <point x="103" y="708" type="line"/>
      <point x="496" y="708" type="line"/>
      <point x="496" y="637" type="line"/>
      <point x="178" y="637" type="line"/>
      <point x="173" y="389" type="line"/>
      <point x="198" y="428"/>
      <point x="266" y="454"/>
      <point x="328" y="454" type="curve" smooth="yes"/>
      <point x="450" y="454"/>
      <point x="538" y="370"/>
      <point x="538" y="230" type="curve" smooth="yes"/>
      <point x="538" y="77"/>
      <point x="440" y="-8"/>
      <point x="289" y="-8" type="curve" smooth="yes"/>
      <point x="210" y="-8"/>
      <point x="119" y="17"/>
      <point x="56" y="66" type="curve"/>
      <point x="90" y="124" type="line"/>
      <point x="150" y="79"/>
      <point x="229" y="56"/>
      <point x="289" y="56" type="curve" smooth="yes"/>
      <point x="397" y="56"/>
      <point x="458" y="117"/>
      <point x="458" y="226" type="curve" smooth="yes"/>
      <point x="458" y="338"/>
      <point x="399" y="388"/>
      <point x="300" y="388" type="curve" smooth="yes"/>
      <point x="235" y="388"/>
      <point x="189" y="353"/>
      <point x="171" y="322" type="curve"/>
      <point x="96" y="322" type="line"/>
    </contour>
  </outline>
</glyph>
<glyph name="six" format="2">
  <advance width="600"/>
  <unicode hex="0036"/>
  <outline>
    <contour>
      <point x="432" y="713" type="curve"/>
      <point x="439" y="650" type="line"/>
      <point x="300" y="633"/>
      <point x="143" y="555"/>
      <point x="143" y="339" type="curve"/>
      <point x="162" y="394"/>
      <point x="242" y="441"/>
      <point x="329" y="441" type="curve" smooth="yes"/>
      <point x="444" y="441"/>
      <point x="538" y="360"/>
      <point x="539" y="217" type="curve" smooth="yes"/>
      <point x="539" y="216"/>
      <point x="539" y="215"/>
      <point x="539" y="215" type="curve" smooth="yes"/>
      <point x="539" y="81"/>
      <point x="453" y="-8"/>
      <point x="304" y="-8" type="curve" smooth="yes"/>
      <point x="142" y="-8"/>
      <point x="64" y="93"/>
      <point x="64" y="299" type="curve" smooth="yes"/>
      <point x="64" y="312"/>
      <point x="64" y="315"/>
      <point x="64" y="318" type="curve" smooth="yes"/>
      <point x="64" y="588"/>
      <point x="254" y="692"/>
    </contour>
    <contour>
      <point x="310" y="375" type="curve" smooth="yes"/>
      <point x="237" y="375"/>
      <point x="185" y="344"/>
      <point x="144" y="302" type="curve"/>
      <point x="143" y="289"/>
      <point x="144" y="284"/>
      <point x="143" y="252" type="curve" smooth="yes"/>
      <point x="143" y="148"/>
      <point x="189" y="56"/>
      <point x="304" y="56" type="curve" smooth="yes"/>
      <point x="411" y="56"/>
      <point x="459" y="110"/>
      <point x="459" y="215" type="curve" smooth="yes"/>
      <point x="459" y="216"/>
      <point x="459" y="216"/>
      <point x="459" y="217" type="curve" smooth="yes"/>
      <point x="459" y="321"/>
      <point x="399" y="375"/>
    </contour>
  </outline>
</glyph>
<glyph name="seven" format="2">
  <advance width="612"/>
  <unicode hex="0037"/>
  <outline>
    <contour>
      <point x="44" y="708" type="line"/>
      <point x="564" y="708" type="line"/>
      <point x="564" y="648" type="line"/>
      <point x="235" y="0" type="line"/>
      <point x="150" y="0" type="line"/>
      <point x="484" y="644" type="line"/>
      <point x="44" y="644" type="line"/>
    </contour>
  </outline>
</glyph>
<glyph name="eight" format="2">
  <advance width="600"/>
  <unicode hex="0038"/>
  <outline>
    <contour>
      <point x="306" y="716" type="curve" smooth="yes"/>
      <point x="437" y="716"/>
      <point x="532" y="647"/>
      <point x="532" y="531" type="curve" smooth="yes"/>
      <point x="532" y="529"/>
      <point x="532" y="527"/>
      <point x="532" y="525" type="curve" smooth="yes"/>
      <point x="532" y="450"/>
      <point x="484" y="381"/>
      <point x="420" y="370" type="curve"/>
      <point x="497" y="343"/>
      <point x="548" y="281"/>
      <point x="548" y="196" type="curve" smooth="yes"/>
      <point x="548" y="195"/>
      <point x="548" y="193"/>
      <point x="548" y="192" type="curve" smooth="yes"/>
      <point x="548" y="66"/>
      <point x="455" y="-7"/>
      <point x="306" y="-7" type="curve" smooth="yes"/>
      <point x="156" y="-7"/>
      <point x="64" y="67"/>
      <point x="64" y="192" type="curve" smooth="yes"/>
      <point x="64" y="194"/>
      <point x="64" y="195"/>
      <point x="64" y="197" type="curve" smooth="yes"/>
      <point x="64" y="284"/>
      <point x="110" y="333"/>
      <point x="191" y="370" type="curve"/>
      <point x="120" y="382"/>
      <point x="81" y="441"/>
      <point x="81" y="524" type="curve" smooth="yes"/>
      <point x="81" y="526"/>
      <point x="81" y="529"/>
      <point x="81" y="531" type="curve" smooth="yes"/>
      <point x="81" y="649"/>
      <point x="175" y="716"/>
    </contour>
    <contour>
      <point x="306" y="650" type="curve" smooth="yes"/>
      <point x="218" y="650"/>
      <point x="161" y="609"/>
      <point x="161" y="531" type="curve" smooth="yes"/>
      <point x="161" y="528"/>
      <point x="161" y="526"/>
      <point x="161" y="524" type="curve" smooth="yes"/>
      <point x="161" y="450"/>
      <point x="217" y="402"/>
      <point x="306" y="402" type="curve" smooth="yes"/>
      <point x="396" y="402"/>
      <point x="452" y="450"/>
      <point x="452" y="524" type="curve" smooth="yes"/>
      <point x="452" y="526"/>
      <point x="452" y="528"/>
      <point x="452" y="530" type="curve" smooth="yes"/>
      <point x="452" y="609"/>
      <point x="394" y="650"/>
    </contour>
    <contour>
      <point x="306" y="336" type="curve" smooth="yes"/>
      <point x="210" y="336"/>
      <point x="144" y="282"/>
      <point x="144" y="197" type="curve" smooth="yes"/>
      <point x="144" y="195"/>
      <point x="144" y="194"/>
      <point x="144" y="192" type="curve" smooth="yes"/>
      <point x="144" y="101"/>
      <point x="203" y="57"/>
      <point x="306" y="57" type="curve" smooth="yes"/>
      <point x="409" y="57"/>
      <point x="468" y="102"/>
      <point x="468" y="192" type="curve" smooth="yes"/>
      <point x="468" y="193"/>
      <point x="468" y="195"/>
      <point x="468" y="197" type="curve" smooth="yes"/>
      <point x="468" y="284"/>
      <point x="403" y="336"/>
    </contour>
  </outline>
</glyph>
<glyph name="nine" format="2">
  <advance width="600"/>
  <unicode hex="0039"/>
  <outline>
    <contour>
      <point x="139" y="56" type="line"/>
      <point x="280" y="56"/>
      <point x="456" y="152"/>
      <point x="456" y="359" type="curve"/>
      <point x="423" y="285"/>
      <point x="347" y="259"/>
      <point x="269" y="259" type="curve" smooth="yes"/>
      <point x="145" y="259"/>
      <point x="64" y="345"/>
      <point x="64" y="482" type="curve" smooth="yes"/>
      <point x="64" y="627"/>
      <point x="155" y="716"/>
      <point x="306" y="716" type="curve" smooth="yes"/>
      <point x="458" y="716"/>
      <point x="536" y="616"/>
      <point x="536" y="415" type="curve" smooth="yes"/>
      <point x="536" y="125"/>
      <point x="339" y="-8"/>
      <point x="140" y="-8" type="curve"/>
    </contour>
    <contour>
      <point x="303" y="652" type="curve" smooth="yes"/>
      <point x="202" y="652"/>
      <point x="144" y="586"/>
      <point x="144" y="482" type="curve" smooth="yes"/>
      <point x="144" y="378"/>
      <point x="193" y="325"/>
      <point x="286" y="325" type="curve" smooth="yes"/>
      <point x="364" y="325"/>
      <point x="423" y="344"/>
      <point x="456" y="398" type="curve"/>
      <point x="456" y="482" type="line"/>
      <point x="456" y="592"/>
      <point x="400" y="652"/>
    </contour>
  </outline>
</glyph>
<glyph name="colon" format="2">
  <advance width="640"/>
  <unicode hex="003A"/>
  <outline>
    <contour>
      <point x="266" y="528" type="curve" smooth="yes"/>
      <point x="303" y="528"/>
      <point x="330" y="501"/>
      <point x="330" y="465" type="curve" smooth="yes"/>
      <point x="330" y="429"/>
      <point x="303" y="402"/>
      <point x="266" y="402" type="curve" smooth="yes"/>
      <point x="230" y="402"/>
      <point x="204" y="429"/>
      <point x="204" y="465" type="curve" smooth="yes"/>
      <point x="204" y="501"/>
      <point x="230" y="528"/>
    </contour>
    <contour>
      <point x="266" y="118" type="curve" smooth="yes"/>
      <point x="302" y="118"/>
      <point x="330" y="90"/>
      <point x="330" y="54" type="curve" smooth="yes"/>
      <point x="330" y="19"/>
      <point x="303" y="-8"/>
      <point x="266" y="-8" type="curve" smooth="yes"/>
      <point x="229" y="-8"/>
      <point x="204" y="17"/>
      <point x="204" y="54" type="curve" smooth="yes"/>
      <point x="204" y="91"/>
      <point x="230" y="118"/>
    </contour>
  </outline>
</glyph>
<glyph name="less" format="2">
  <advance width="600"/>
  <unicode hex="003C"/>
  <outline>
    <contour>
      <point x="65" y="330" type="line"/>
      <point x="498" y="494" type="line"/>
      <point x="523" y="423" type="line"/>
      <point x="135" y="279" type="line"/>
      <point x="523" y="134" type="line"/>
      <point x="498" y="63" type="line"/>
      <point x="65" y="227" type="line"/>
    </contour>
  </outline>
</glyph>
<glyph name="greater" format="2">
  <advance width="576"/>
  <unicode hex="003E"/>
  <outline>
    <contour>
      <point x="62" y="505" type="line"/>
      <point x="481" y="330" type="line"/>
      <point x="481" y="227" type="line"/>
      <point x="62" y="52" type="line"/>
      <point x="32" y="119" type="line"/>
      <point x="421" y="279" type="line"/>
      <point x="32" y="438" type="line"/>
    </contour>
  </outline>
</glyph>
<glyph name="at" format="2">
  <advance width="600"/>
  <unicode hex="0040"/>
  <outline>
    <contour>
      <point x="352" y="800" type="curve" smooth="yes"/>
      <point x="437" y="800"/>
      <point x="520" y="768"/>
      <point x="586" y="695" type="curve"/>
      <point x="528" y="267" type="line"/>
      <point x="619" y="182" type="line"/>
      <point x="570" y="126" type="line"/>
      <point x="479" y="216" type="line"/>
      <point x="446" y="159"/>
      <point x="403" y="128"/>
      <point x="338" y="128" type="curve" smooth="yes"/>
      <point x="261" y="128"/>
      <point x="193" y="198"/>
      <point x="193" y="320" type="curve" smooth="yes"/>
      <point x="193" y="481"/>
      <point x="260" y="580"/>
      <point x="374" y="580" type="curve" smooth="yes"/>
      <point x="432" y="580"/>
      <point x="473" y="542"/>
      <point x="490" y="510" type="curve"/>
      <point x="513" y="669" type="line"/>
      <point x="469" y="713"/>
      <point x="422" y="731"/>
      <point x="352" y="731" type="curve" smooth="yes"/>
      <point x="171" y="731"/>
      <point x="116" y="591"/>
      <point x="116" y="344" type="curve" smooth="yes"/>
      <point x="116" y="107"/>
      <point x="170" y="-27"/>
      <point x="385" y="-27" type="curve" smooth="yes"/>
      <point x="465" y="-27"/>
      <point x="530" y="-7"/>
      <point x="554" y="3" type="curve"/>
      <point x="555" y="-64" type="line"/>
      <point x="507" y="-79"/>
      <point x="451" y="-96"/>
      <point x="381" y="-96" type="curve" smooth="yes"/>
      <point x="153" y="-96"/>
      <point x="40" y="25"/>
      <point x="40" y="344" type="curve" smooth="yes"/>
      <point x="40" y="643"/>
      <point x="147" y="800"/>
    </contour>
    <contour>
      <point x="378" y="513" type="curve" smooth="yes"/>
      <point x="284" y="513"/>
      <point x="271" y="417"/>
      <point x="271" y="325" type="curve" smooth="yes"/>
      <point x="271" y="251"/>
      <point x="297" y="198"/>
      <point x="352" y="198" type="curve" smooth="yes"/>
      <point x="411" y="198"/>
      <point x="456" y="222"/>
      <point x="472" y="358" type="curve" smooth="yes"/>
      <point x="483" y="450" type="line"/>
      <point x="464" y="482"/>
      <point x="434" y="513"/>
    </contour>
  </outline>
</glyph>
<glyph name="A" format="2">
  <advance width="600"/>
  <unicode hex="0041"/>
  <anchor x="314" y="881" name="AccentCenter"/>
  <outline>
    <contour>
      <point x="271" y="708" type="line"/>
      <point x="366" y="708" type="line"/>
      <point x="567" y="0" type="line"/>
      <point x="492" y="0" type="line"/>
      <point x="442" y="182" type="line"/>
      <point x="174" y="182" type="line"/>
      <point x="118" y="0" type="line"/>
      <point x="33" y="0" type="line"/>
    </contour>
    <contour>
      <point x="316" y="641" type="line"/>
      <point x="193" y="246" type="line"/>
      <point x="424" y="246" type="line"/>
      <point x="319" y="641" type="line"/>
    </contour>
  </outline>
</glyph>
<glyph name="B" format="2">
  <advance width="576"/>
  <unicode hex="0042"/>
  <outline>
    <contour>
      <point x="80" y="708" type="line"/>
      <point x="308" y="708" type="line" smooth="yes"/>
      <point x="440" y="708"/>
      <point x="521" y="641"/>
      <point x="521" y="534" type="curve" smooth="yes"/>
      <point x="521" y="461"/>
      <point x="486" y="409"/>
      <point x="417" y="378" type="curve"/>
      <point x="500" y="357"/>
      <point x="553" y="288"/>
      <point x="553" y="197" type="curve" smooth="yes"/>
      <point x="553" y="74"/>
      <point x="469" y="0"/>
      <point x="329" y="0" type="curve" smooth="yes"/>
      <point x="80" y="0" type="line"/>
    </contour>
    <contour>
      <point x="156" y="644" type="line"/>
      <point x="156" y="412" type="line"/>
      <point x="312" y="412" type="line" smooth="yes"/>
      <point x="402" y="412"/>
      <point x="443" y="449"/>
      <point x="443" y="530" type="curve" smooth="yes"/>
      <point x="443" y="606"/>
      <point x="397" y="644"/>
      <point x="306" y="644" type="curve" smooth="yes"/>
    </contour>
    <contour>
      <point x="156" y="344" type="line"/>
      <point x="156" y="64" type="line"/>
      <point x="329" y="64" type="line" smooth="yes"/>
      <point x="420" y="64"/>
      <point x="473" y="115"/>
      <point x="473" y="202" type="curve" smooth="yes"/>
      <point x="473" y="294"/>
      <point x="415" y="344"/>
      <point x="306" y="344" type="curve" smooth="yes"/>
    </contour>
  </outline>
</glyph>
<glyph name="C" format="2">
  <advance width="600"/>
  <unicode hex="0043"/>
  <outline>
    <contour>
      <point x="348" y="716" type="curve" smooth="yes"/>
      <point x="425" y="716"/>
      <point x="479" y="694"/>
      <point x="538" y="647" type="curve"/>
      <point x="505" y="596" type="line"/>
      <point x="445" y="640"/>
      <point x="403" y="653"/>
      <point x="349" y="653" type="curve" smooth="yes"/>
      <point x="190" y="653"/>
      <point x="144" y="504"/>
      <point x="144" y="349" type="curve" smooth="yes"/>
      <point x="144" y="348"/>
      <point x="144" y="348"/>
      <point x="144" y="347" type="curve" smooth="yes"/>
      <point x="144" y="186"/>
      <point x="211" y="56"/>
      <point x="352" y="56" type="curve" smooth="yes"/>
      <point x="419" y="56"/>
      <point x="457" y="70"/>
      <point x="515" y="111" type="curve"/>
      <point x="545" y="58" type="line"/>
      <point x="500" y="28"/>
      <point x="465" y="-8"/>
      <point x="351" y="-8" type="curve" smooth="yes"/>
      <point x="153" y="-8"/>
      <point x="64" y="168"/>
      <point x="64" y="347" type="curve" smooth="yes"/>
      <point x="64" y="348"/>
      <point x="64" y="348"/>
      <point x="64" y="349" type="curve" smooth="yes"/>
      <point x="64" y="522"/>
      <point x="142" y="716"/>
    </contour>
  </outline>
</glyph>
<glyph name="D" format="2">
  <advance width="612"/>
  <unicode hex="0044"/>
  <outline>
    <contour>
      <point x="160" y="642" type="line"/>
      <point x="160" y="64" type="line"/>
      <point x="259" y="64" type="line" smooth="yes"/>
      <point x="414" y="64"/>
      <point x="493" y="163"/>
      <point x="493" y="361" type="curve" smooth="yes"/>
      <point x="493" y="546"/>
      <point x="412" y="642"/>
      <point x="261" y="642" type="curve" smooth="yes"/>
    </contour>
    <contour>
      <point x="80" y="708" type="line"/>
      <point x="261" y="708" type="line" smooth="yes"/>
      <point x="461" y="708"/>
      <point x="572" y="585"/>
      <point x="572" y="361" type="curve" smooth="yes"/>
      <point x="572" y="124"/>
      <point x="463" y="0"/>
      <point x="257" y="0" type="curve" smooth="yes"/>
      <point x="80" y="0" type="line"/>
    </contour>
  </outline>
</glyph>
<glyph name="E" format="2">
  <advance width="600"/>
  <unicode hex="0045"/>
  <anchor x="302" y="880" name="AccentCenter"/>
  <outline>
    <contour>
      <point x="92" y="708" type="line"/>
      <point x="527" y="708" type="line"/>
      <point x="527" y="644" type="line"/>
      <point x="172" y="644" type="line"/>
      <point x="172" y="402" type="line"/>
      <point x="447" y="402" type="line"/>
      <point x="447" y="332" type="line"/>
      <point x="172" y="332" type="line"/>
      <point x="172" y="64" type="line"/>
      <point x="527" y="64" type="line"/>
      <point x="527" y="0" type="line"/>
      <point x="92" y="0" type="line"/>
    </contour>
  </outline>
</glyph>
<glyph name="F" format="2">
  <advance width="512"/>
  <unicode hex="0046"/>
  <outline>
    <contour>
      <point x="92" y="708" type="line"/>
      <point x="532" y="708" type="line"/>
      <point x="532" y="644" type="line"/>
      <point x="174" y="644" type="line"/>
      <point x="174" y="406" type="line"/>
      <point x="454" y="406" type="line"/>
      <point x="454" y="336" type="line"/>
      <point x="174" y="336" type="line"/>
      <point x="174" y="0" type="line"/>
      <point x="92" y="0" type="line"/>
    </contour>
  </outline>
</glyph>
<glyph name="G" format="2">
  <advance width="600"/>
  <unicode hex="0047"/>
  <outline>
    <contour>
      <point x="344" y="716" type="curve" smooth="yes"/>
      <point x="408" y="716"/>
      <point x="474" y="700"/>
      <point x="536" y="654" type="curve"/>
      <point x="505" y="602" type="line"/>
      <point x="450" y="638"/>
      <point x="405" y="653"/>
      <point x="346" y="653" type="curve" smooth="yes"/>
      <point x="217" y="653"/>
      <point x="142" y="556"/>
      <point x="142" y="352" type="curve" smooth="yes"/>
      <point x="142" y="148"/>
      <point x="215" y="53"/>
      <point x="355" y="53" type="curve" smooth="yes"/>
      <point x="398" y="53"/>
      <point x="427" y="60"/>
      <point x="456" y="68" type="curve"/>
      <point x="456" y="326" type="line"/>
      <point x="296" y="326" type="line"/>
      <point x="296" y="392" type="line"/>
      <point x="536" y="392" type="line"/>
      <point x="536" y="26" type="line"/>
      <point x="454" y="1"/>
      <point x="422" y="-8"/>
      <point x="342" y="-8" type="curve" smooth="yes"/>
      <point x="191" y="-8"/>
      <point x="64" y="74"/>
      <point x="64" y="352" type="curve" smooth="yes"/>
      <point x="64" y="576"/>
      <point x="156" y="716"/>
    </contour>
  </outline>
</glyph>
<glyph name="I" format="2">
  <advance width="600"/>
  <unicode hex="0049"/>
  <anchor x="287" y="885" name="AccentCenter"/>
  <outline>
    <contour>
      <point x="92" y="711" type="line"/>
      <point x="520" y="711" type="line"/>
      <point x="520" y="647" type="line"/>
      <point x="346" y="647" type="line"/>
      <point x="346" y="61" type="line"/>
      <point x="520" y="61" type="line"/>
      <point x="520" y="-3" type="line"/>
      <point x="92" y="-3" type="line"/>
      <point x="92" y="61" type="line"/>
      <point x="266" y="61" type="line"/>
      <point x="266" y="647" type="line"/>
      <point x="92" y="647" type="line"/>
    </contour>
  </outline>
</glyph>
<glyph name="J" format="2">
  <advance width="600"/>
  <unicode hex="004A"/>
  <outline>
    <contour>
      <point x="202" y="708" type="line"/>
      <point x="508" y="708" type="line"/>
      <point x="508" y="209" type="line" smooth="yes"/>
      <point x="508" y="90"/>
      <point x="431" y="-8"/>
      <point x="273" y="-8" type="curve" smooth="yes"/>
      <point x="166" y="-8"/>
      <point x="109" y="41"/>
      <point x="65" y="93" type="curve"/>
      <point x="109" y="146" type="line"/>
      <point x="152" y="101"/>
      <point x="191" y="56"/>
      <point x="275" y="56" type="curve" smooth="yes"/>
      <point x="370" y="56"/>
      <point x="428" y="103"/>
      <point x="428" y="206" type="curve" smooth="yes"/>
      <point x="428" y="644" type="line"/>
      <point x="202" y="644" type="line"/>
    </contour>
  </outline>
</glyph>
<glyph name="K" format="2">
  <advance width="612"/>
  <unicode hex="004B"/>
  <outline>
    <contour>
      <point x="80" y="708" type="line"/>
      <point x="160" y="708" type="line"/>
      <point x="160" y="397" type="line"/>
      <point x="208" y="397" type="line"/>
      <point x="445" y="708" type="line"/>
      <point x="551" y="708" type="line"/>
      <point x="269" y="359" type="line"/>
      <point x="552" y="0" type="line"/>
      <point x="446" y="0" type="line"/>
      <point x="208" y="322" type="line"/>
      <point x="160" y="322" type="line"/>
      <point x="160" y="0" type="line"/>
      <point x="80" y="0" type="line"/>
    </contour>
  </outline>
</glyph>
<glyph name="L" format="2">
  <advance width="640"/>
  <unicode hex="004C"/>
  <outline>
    <contour>
      <point x="80" y="708" type="line"/>
      <point x="160" y="708" type="line"/>
      <point x="160" y="64" type="line"/>
      <point x="519" y="64" type="line"/>
      <point x="519" y="0" type="line"/>
      <point x="80" y="0" type="line"/>
    </contour>
  </outline>
</glyph>
<glyph name="M" format="2">
  <advance width="512"/>
  <unicode hex="004D"/>
  <outline>
    <contour>
      <point x="92" y="708" type="line"/>
      <point x="180" y="708" type="line"/>
      <point x="380" y="258" type="line"/>
      <point x="573" y="708" type="line"/>
      <point x="662" y="708" type="line"/>
      <point x="662" y="0" type="line"/>
      <point x="582" y="0" type="line"/>
      <point x="582" y="543" type="line"/>
      <point x="426" y="179" type="line"/>
      <point x="336" y="179" type="line"/>
      <point x="172" y="545" type="line"/>
      <point x="172" y="0" type="line"/>
      <point x="92" y="0" type="line"/>
    </contour>
  </outline>
</glyph>
<glyph name="N" format="2">
  <advance width="640"/>
  <unicode hex="004E"/>
  <outline>
    <contour>
      <point x="80" y="708" type="line"/>
      <point x="165" y="708" type="line"/>
      <point x="416" y="163" type="line"/>
      <point x="416" y="708" type="line"/>
      <point x="496" y="708" type="line"/>
      <point x="496" y="0" type="line"/>
      <point x="410" y="0" type="line"/>
      <point x="160" y="549" type="line"/>
      <point x="160" y="0" type="line"/>
      <point x="80" y="0" type="line"/>
    </contour>
  </outline>
</glyph>
<glyph name="O" format="2">
  <advance width="640"/>
  <unicode hex="004F"/>
  <anchor x="365" y="881" name="AccentCenter"/>
  <outline>
    <contour>
      <point x="323" y="716" type="curve" smooth="yes"/>
      <point x="509" y="716"/>
      <point x="576" y="551"/>
      <point x="576" y="358" type="curve" smooth="yes"/>
      <point x="576" y="160"/>
      <point x="519" y="-8"/>
      <point x="323" y="-8" type="curve" smooth="yes"/>
      <point x="133" y="-8"/>
      <point x="64" y="155"/>
      <point x="64" y="358" type="curve" smooth="yes"/>
      <point x="64" y="551"/>
      <point x="133" y="716"/>
    </contour>
    <contour>
      <point x="323" y="652" type="curve" smooth="yes"/>
      <point x="182" y="652"/>
      <point x="144" y="489"/>
      <point x="144" y="358" type="curve" smooth="yes"/>
      <point x="144" y="200"/>
      <point x="182" y="56"/>
      <point x="323" y="56" type="curve" smooth="yes"/>
      <point x="467" y="56"/>
      <point x="496" y="208"/>
      <point x="496" y="358" type="curve" smooth="yes"/>
      <point x="496" y="483"/>
      <point x="466" y="652"/>
    </contour>
  </outline>
</glyph>
<glyph name="P" format="2">
  <advance width="612"/>
  <unicode hex="0050"/>
  <outline>
    <contour>
      <point x="156" y="644" type="line"/>
      <point x="156" y="324" type="line"/>
      <point x="329" y="324" type="line" smooth="yes"/>
      <point x="441" y="324"/>
      <point x="492" y="376"/>
      <point x="492" y="491" type="curve" smooth="yes"/>
      <point x="492" y="593"/>
      <point x="444" y="644"/>
      <point x="347" y="644" type="curve" smooth="yes"/>
    </contour>
    <contour>
      <point x="80" y="708" type="line"/>
      <point x="344" y="708" type="line" smooth="yes"/>
      <point x="491" y="708"/>
      <point x="572" y="631"/>
      <point x="572" y="491" type="curve" smooth="yes"/>
      <point x="572" y="339"/>
      <point x="489" y="260"/>
      <point x="329" y="260" type="curve" smooth="yes"/>
      <point x="156" y="260" type="line"/>
      <point x="156" y="0" type="line"/>
      <point x="80" y="0" type="line"/>
    </contour>
  </outline>
</glyph>
<glyph name="Q" format="2">
  <advance width="600"/>
  <unicode hex="0051"/>
  <outline>
    <contour>
      <point x="301" y="652" type="curve" smooth="yes"/>
      <point x="188" y="652"/>
      <point x="128" y="552"/>
      <point x="128" y="353" type="curve" smooth="yes"/>
      <point x="128" y="154"/>
      <point x="188" y="54"/>
      <point x="301" y="54" type="curve" smooth="yes"/>
      <point x="411" y="54"/>
      <point x="468" y="151"/>
      <point x="468" y="353" type="curve" smooth="yes"/>
      <point x="468" y="555"/>
      <point x="411" y="652"/>
    </contour>
    <contour>
      <point x="301" y="716" type="curve" smooth="yes"/>
      <point x="455" y="716"/>
      <point x="548" y="585"/>
      <point x="548" y="358" type="curve" smooth="yes"/>
      <point x="548" y="166"/>
      <point x="497" y="20"/>
      <point x="341" y="-5" type="curve"/>
      <point x="346" y="-89"/>
      <point x="378" y="-120"/>
      <point x="456" y="-120" type="curve" smooth="yes"/>
      <point x="563" y="-120" type="line"/>
      <point x="567" y="-167" type="line"/>
      <point x="541" y="-175"/>
      <point x="516" y="-184"/>
      <point x="450" y="-184" type="curve" smooth="yes"/>
      <point x="330" y="-184"/>
      <point x="275" y="-128"/>
      <point x="263" y="-5" type="curve"/>
      <point x="113" y="10"/>
      <point x="48" y="168"/>
      <point x="48" y="355" type="curve" smooth="yes"/>
      <point x="48" y="584"/>
      <point x="143" y="716"/>
    </contour>
  </outline>
</glyph>
<glyph name="R" format="2">
  <advance width="640"/>
  <unicode hex="0052"/>
  <outline>
    <contour>
      <point x="80" y="708" type="line"/>
      <point x="347" y="708" type="line" smooth="yes"/>
      <point x="491" y="708"/>
      <point x="572" y="634"/>
      <point x="572" y="502" type="curve" smooth="yes"/>
      <point x="572" y="394"/>
      <point x="507" y="307"/>
      <point x="383" y="299" type="curve"/>
      <point x="591" y="0" type="line"/>
      <point x="504" y="0" type="line"/>
      <point x="266" y="352" type="line"/>
      <point x="328" y="352" type="line" smooth="yes"/>
      <point x="440" y="352"/>
      <point x="492" y="400"/>
      <point x="492" y="503" type="curve" smooth="yes"/>
      <point x="492" y="598"/>
      <point x="444" y="644"/>
      <point x="347" y="644" type="curve" smooth="yes"/>
      <point x="160" y="644" type="line"/>
      <point x="160" y="0" type="line"/>
      <point x="80" y="0" type="line"/>
    </contour>
  </outline>
</glyph>
<glyph name="S" format="2">
  <advance width="600"/>
  <unicode hex="0053"/>
  <outline>
    <contour>
      <point x="324" y="716" type="curve" smooth="yes"/>
      <point x="402" y="716"/>
      <point x="465" y="692"/>
      <point x="529" y="649" type="curve"/>
      <point x="496" y="593" type="line"/>
      <point x="445" y="628"/>
      <point x="389" y="652"/>
      <point x="323" y="652" type="curve" smooth="yes"/>
      <point x="233" y="652"/>
      <point x="164" y="614"/>
      <point x="164" y="529" type="curve" smooth="yes"/>
      <point x="164" y="456"/>
      <point x="202" y="420"/>
      <point x="307" y="394" type="curve" smooth="yes"/>
      <point x="389" y="374" type="line" smooth="yes"/>
      <point x="492" y="349"/>
      <point x="554" y="285"/>
      <point x="554" y="184" type="curve" smooth="yes"/>
      <point x="554" y="74"/>
      <point x="474" y="-8"/>
      <point x="303" y="-8" type="curve" smooth="yes"/>
      <point x="221" y="-8"/>
      <point x="163" y="1"/>
      <point x="57" y="54" type="curve"/>
      <point x="86" y="116" type="line"/>
      <point x="174" y="68"/>
      <point x="239" y="56"/>
      <point x="308" y="56" type="curve" smooth="yes"/>
      <point x="416" y="56"/>
      <point x="474" y="99"/>
      <point x="474" y="184" type="curve" smooth="yes"/>
      <point x="474" y="262"/>
      <point x="425" y="298"/>
      <point x="332" y="319" type="curve" smooth="yes"/>
      <point x="264" y="334" type="line" smooth="yes"/>
      <point x="153" y="358"/>
      <point x="84" y="432"/>
      <point x="84" y="529" type="curve" smooth="yes"/>
      <point x="84" y="582"/>
      <point x="113" y="716"/>
    </contour>
  </outline>
</glyph>
<glyph name="T" format="2">
  <advance width="600"/>
  <unicode hex="0054"/>
  <outline>
    <contour>
      <point x="56" y="708" type="line"/>
      <point x="556" y="708" type="line"/>
      <point x="556" y="641" type="line"/>
      <point x="342" y="641" type="line"/>
      <point x="342" y="0" type="line"/>
      <point x="262" y="0" type="line"/>
      <point x="262" y="641" type="line"/>
      <point x="56" y="641" type="line"/>
    </contour>
  </outline>
</glyph>
<glyph name="U" format="2">
  <advance width="640"/>
  <unicode hex="0055"/>
  <anchor x="345" y="880" name="AccentCenter"/>
  <outline>
    <contour>
      <point x="80" y="708" type="line"/>
      <point x="160" y="708" type="line"/>
      <point x="160" y="265" type="line" smooth="yes"/>
      <point x="160" y="173"/>
      <point x="174" y="56"/>
      <point x="322" y="56" type="curve" smooth="yes"/>
      <point x="475" y="56"/>
      <point x="480" y="196"/>
      <point x="480" y="265" type="curve" smooth="yes"/>
      <point x="480" y="708" type="line"/>
      <point x="560" y="708" type="line"/>
      <point x="560" y="263" type="line" smooth="yes"/>
      <point x="560" y="162"/>
      <point x="529" y="-8"/>
      <point x="318" y="-8" type="curve" smooth="yes"/>
      <point x="235" y="-8"/>
      <point x="80" y="24"/>
      <point x="80" y="265" type="curve" smooth="yes"/>
    </contour>
  </outline>
</glyph>
<glyph name="V" format="2">
  <advance width="640"/>
  <unicode hex="0056"/>
  <outline>
    <contour>
      <point x="32" y="708" type="line"/>
      <point x="112" y="708" type="line"/>
      <point x="288" y="79" type="line"/>
      <point x="464" y="708" type="line"/>
      <point x="544" y="708" type="line"/>
      <point x="331" y="0" type="line"/>
      <point x="244" y="0" type="line"/>
    </contour>
  </outline>
</glyph>
<glyph name="W" format="2">
  <advance width="640"/>
  <unicode hex="0057"/>
  <outline>
    <contour>
      <point x="32" y="707" type="line"/>
      <point x="114" y="707" type="line"/>
      <point x="197" y="147" type="line"/>
      <point x="293" y="552" type="line"/>
      <point x="354" y="552" type="line"/>
      <point x="445" y="147" type="line"/>
      <point x="527" y="708" type="line"/>
      <point x="608" y="708" type="line"/>
      <point x="483" y="0" type="line"/>
      <point x="418" y="0" type="line"/>
      <point x="323" y="429" type="line"/>
      <point x="225" y="0" type="line"/>
      <point x="158" y="0" type="line"/>
    </contour>
  </outline>
</glyph>
<glyph name="X" format="2">
  <advance width="600"/>
  <unicode hex="0058"/>
  <outline>
    <contour>
      <point x="44" y="708" type="line"/>
      <point x="128" y="708" type="line"/>
      <point x="300" y="411" type="line"/>
      <point x="471" y="708" type="line"/>
      <point x="556" y="708" type="line"/>
      <point x="344" y="354" type="line"/>
      <point x="556" y="0" type="line"/>
      <point x="471" y="0" type="line"/>
      <point x="300" y="298" type="line"/>
      <point x="128" y="0" type="line"/>
      <point x="44" y="0" type="line"/>
      <point x="256" y="354" type="line"/>
    </contour>
  </outline>
</glyph>
<glyph name="Y" format="2">
  <advance width="576"/>
  <unicode hex="0059"/>
  <anchor x="299" y="880" name="AccentCenter"/>
  <outline>
    <contour>
      <point x="32" y="708" type="line"/>
      <point x="118" y="708" type="line"/>
      <point x="289" y="342" type="line"/>
      <point x="458" y="708" type="line"/>
      <point x="544" y="708" type="line"/>
      <point x="329" y="269" type="line"/>
      <point x="329" y="0" type="line"/>
      <point x="249" y="0" type="line"/>
      <point x="249" y="271" type="line"/>
    </contour>
  </outline>
</glyph>
<glyph name="Z" format="2">
  <advance width="600"/>
  <unicode hex="005A"/>
  <outline>
    <contour>
      <point x="76" y="708" type="line"/>
      <point x="532" y="708" type="line"/>
      <point x="532" y="644" type="line"/>
      <point x="167" y="64" type="line"/>
      <point x="536" y="64" type="line"/>
      <point x="536" y="0" type="line"/>
      <point x="76" y="0" type="line"/>
      <point x="76" y="64" type="line"/>
      <point x="441" y="644" type="line"/>
      <point x="76" y="644" type="line"/>
    </contour>
  </outline>
</glyph>
<glyph name="bracketleft" format="2">
  <advance width="600"/>
  <unicode hex="005B"/>
  <outline>
    <contour>
      <point x="128" y="800" type="line"/>
      <point x="480" y="800" type="line"/>
      <point x="480" y="733" type="line"/>
      <point x="208" y="733" type="line"/>
      <point x="208" y="0" type="line"/>
      <point x="480" y="0" type="line"/>
      <point x="480" y="-64" type="line"/>
      <point x="128" y="-64" type="line"/>
    </contour>
  </outline>
</glyph>
<glyph name="backslash" format="2">
  <advance width="600"/>
  <unicode hex="005C"/>
  <outline>
    <contour>
      <point x="89" y="772" type="line"/>
      <point x="168" y="772" type="line"/>
      <point x="511" y="-34" type="line"/>
      <point x="432" y="-34" type="line"/>
    </contour>
  </outline>
</glyph>
<glyph name="bracketright" format="2">
  <advance width="576"/>
  <unicode hex="005D"/>
  <outline>
    <contour>
      <point x="128" y="819" type="line"/>
      <point x="448" y="819" type="line"/>
      <point x="448" y="-64" type="line"/>
      <point x="128" y="-64" type="line"/>
      <point x="128" y="0" type="line"/>
      <point x="370" y="0" type="line"/>
      <point x="370" y="752" type="line"/>
      <point x="128" y="752" type="line"/>
    </contour>
  </outline>
</glyph>
<glyph name="underscore" format="2">
  <advance width="612"/>
  <unicode hex="005F"/>
  <outline>
    <contour>
      <point x="64" y="0" type="line"/>
      <point x="548" y="0" type="line"/>
      <point x="548" y="-64" type="line"/>
      <point x="64" y="-64" type="line"/>
    </contour>
  </outline>
</glyph>
<glyph name="grave" format="2">
  <advance width="576"/>
  <unicode hex="0060"/>
  <outline>
    <contour>
      <point x="59" y="907" type="line"/>
      <point x="268" y="772" type="line"/>
      <point x="231" y="720" type="line"/>
      <point x="13" y="843" type="line"/>
    </contour>
  </outline>
</glyph>
<glyph name="a" format="2">
  <advance width="600"/>
  <unicode hex="0061"/>
  <anchor x="320" y="687" name="AccentCenter"/>
  <anchor x="310" y="687" name="Ring"/>
  <outline>
    <contour>
      <point x="278" y="528" type="curve" smooth="yes"/>
      <point x="416" y="528"/>
      <point x="483" y="452"/>
      <point x="483" y="321" type="curve" smooth="yes"/>
      <point x="483" y="66" type="line"/>
      <point x="483" y="66"/>
      <point x="561" y="66"/>
      <point x="561" y="66" type="curve"/>
      <point x="561" y="0" type="line"/>
      <point x="556" y="0"/>
      <point x="403" y="0"/>
      <point x="403" y="0" type="curve" smooth="yes"/>
      <point x="403" y="0"/>
      <point x="403" y="91"/>
      <point x="403" y="91" type="curve"/>
      <point x="393" y="63"/>
      <point x="342" y="-8"/>
      <point x="237" y="-8" type="curve" smooth="yes"/>
      <point x="134" y="-8"/>
      <point x="61" y="46"/>
      <point x="61" y="138" type="curve" smooth="yes"/>
      <point x="61" y="234"/>
      <point x="123" y="303"/>
      <point x="256" y="303" type="curve" smooth="yes"/>
      <point x="403" y="303" type="line"/>
      <point x="403" y="335" type="line" smooth="yes"/>
      <point x="403" y="414"/>
      <point x="364" y="464"/>
      <point x="276" y="464" type="curve" smooth="yes"/>
      <point x="211" y="464"/>
      <point x="166" y="452"/>
      <point x="115" y="431" type="curve"/>
      <point x="90" y="485" type="line"/>
      <point x="169" y="520"/>
      <point x="213" y="528"/>
    </contour>
    <contour>
      <point x="403" y="241" type="line"/>
      <point x="253" y="241" type="line" smooth="yes"/>
      <point x="167" y="241"/>
      <point x="141" y="204"/>
      <point x="141" y="142" type="curve" smooth="yes"/>
      <point x="141" y="78"/>
      <point x="184" y="56"/>
      <point x="252" y="56" type="curve" smooth="yes"/>
      <point x="340" y="56"/>
      <point x="385" y="119"/>
      <point x="403" y="162" type="curve"/>
    </contour>
  </outline>
</glyph>
<glyph name="b" format="2">
  <advance width="640"/>
  <unicode hex="0062"/>
  <outline>
    <contour>
      <point x="80" y="724" type="line"/>
      <point x="160" y="724" type="line"/>
      <point x="160" y="434" type="line"/>
      <point x="163" y="440"/>
      <point x="218" y="528"/>
      <point x="334" y="528" type="curve" smooth="yes"/>
      <point x="506" y="528"/>
      <point x="576" y="403"/>
      <point x="576" y="267" type="curve" smooth="yes"/>
      <point x="576" y="79"/>
      <point x="484" y="-8"/>
      <point x="335" y="-8" type="curve" smooth="yes"/>
      <point x="235" y="-8"/>
      <point x="180" y="33"/>
      <point x="155" y="100" type="curve"/>
      <point x="142" y="0" type="line"/>
      <point x="80" y="0" type="line"/>
    </contour>
    <contour>
      <point x="314" y="464" type="curve" smooth="yes"/>
      <point x="241" y="464"/>
      <point x="188" y="418"/>
      <point x="160" y="368" type="curve"/>
      <point x="160" y="158" type="line"/>
      <point x="185" y="96"/>
      <point x="242" y="56"/>
      <point x="315" y="56" type="curve" smooth="yes"/>
      <point x="427" y="56"/>
      <point x="496" y="123"/>
      <point x="496" y="264" type="curve" smooth="yes"/>
      <point x="496" y="382"/>
      <point x="424" y="464"/>
    </contour>
  </outline>
</glyph>
<glyph name="c" format="2">
  <advance width="640"/>
  <unicode hex="0063"/>
  <outline>
    <contour>
      <point x="346" y="528" type="curve" smooth="yes"/>
      <point x="433" y="528"/>
      <point x="505" y="511"/>
      <point x="578" y="455" type="curve"/>
      <point x="539" y="404" type="line"/>
      <point x="481" y="450"/>
      <point x="421" y="464"/>
      <point x="351" y="464" type="curve" smooth="yes"/>
      <point x="216" y="464"/>
      <point x="144" y="396"/>
      <point x="144" y="260" type="curve" smooth="yes"/>
      <point x="144" y="125"/>
      <point x="216" y="56"/>
      <point x="348" y="56" type="curve" smooth="yes"/>
      <point x="428" y="56"/>
      <point x="490" y="72"/>
      <point x="542" y="120" type="curve"/>
      <point x="583" y="69" type="line"/>
      <point x="505" y="8"/>
      <point x="437" y="-8"/>
      <point x="344" y="-8" type="curve" smooth="yes"/>
      <point x="180" y="-8"/>
      <point x="64" y="93"/>
      <point x="64" y="260" type="curve" smooth="yes"/>
      <point x="64" y="432"/>
      <point x="176" y="528"/>
    </contour>
  </outline>
</glyph>
<glyph name="d" format="2">
  <advance width="600"/>
  <unicode hex="0064"/>
  <outline>
    <contour>
      <point x="428" y="724" type="line"/>
      <point x="508" y="724" type="line"/>
      <point x="508" y="0" type="line"/>
      <point x="446" y="0" type="line"/>
      <point x="432" y="100" type="line"/>
      <point x="411" y="44"/>
      <point x="358" y="-8"/>
      <point x="268" y="-8" type="curve" smooth="yes"/>
      <point x="132" y="-8"/>
      <point x="46" y="79"/>
      <point x="46" y="267" type="curve" smooth="yes"/>
      <point x="46" y="403"/>
      <point x="112" y="528"/>
      <point x="269" y="528" type="curve" smooth="yes"/>
      <point x="373" y="528"/>
      <point x="423" y="440"/>
      <point x="428" y="434" type="curve"/>
    </contour>
    <contour>
      <point x="287" y="464" type="curve" smooth="yes"/>
      <point x="181" y="464"/>
      <point x="126" y="382"/>
      <point x="126" y="264" type="curve" smooth="yes"/>
      <point x="126" y="123"/>
      <point x="184" y="56"/>
      <point x="286" y="56" type="curve" smooth="yes"/>
      <point x="352" y="56"/>
      <point x="401" y="96"/>
      <point x="428" y="158" type="curve"/>
      <point x="428" y="368" type="line"/>
      <point x="399" y="418"/>
      <point x="353" y="464"/>
    </contour>
  </outline>
</glyph>
<glyph name="e" format="2">
  <advance width="600"/>
  <unicode hex="0065"/>
  <anchor x="318" y="687" name="AccentCenter"/>
  <outline>
    <contour>
      <point x="306" y="528" type="curve" smooth="yes"/>
      <point x="440" y="528"/>
      <point x="515" y="439"/>
      <point x="515" y="298" type="curve" smooth="yes"/>
      <point x="515" y="296"/>
      <point x="515" y="294"/>
      <point x="515" y="292" type="curve" smooth="yes"/>
      <point x="515" y="264"/>
      <point x="513" y="245"/>
      <point x="508" y="236" type="curve"/>
      <point x="159" y="236" type="line"/>
      <point x="159" y="234"/>
      <point x="159" y="232"/>
      <point x="159" y="230" type="curve" smooth="yes"/>
      <point x="159" y="152"/>
      <point x="213" y="56"/>
      <point x="335" y="56" type="curve" smooth="yes"/>
      <point x="390" y="56"/>
      <point x="445" y="68"/>
      <point x="494" y="101" type="curve"/>
      <point x="520" y="46" type="line"/>
      <point x="443" y="5"/>
      <point x="412" y="-8"/>
      <point x="332" y="-8" type="curve" smooth="yes"/>
      <point x="167" y="-8"/>
      <point x="76" y="112"/>
      <point x="76" y="261" type="curve" smooth="yes"/>
      <point x="76" y="263"/>
      <point x="76" y="266"/>
      <point x="76" y="268" type="curve" smooth="yes"/>
      <point x="76" y="439"/>
      <point x="166" y="528"/>
    </contour>
    <contour>
      <point x="305" y="464" type="curve" smooth="yes"/>
      <point x="209" y="464"/>
      <point x="159" y="407"/>
      <point x="159" y="300" type="curve" smooth="yes"/>
      <point x="159" y="298"/>
      <point x="159" y="297"/>
      <point x="159" y="295" type="curve"/>
      <point x="435" y="295" type="line"/>
      <point x="435" y="318" type="line" smooth="yes"/>
      <point x="435" y="413"/>
      <point x="397" y="464"/>
    </contour>
  </outline>
</glyph>
<glyph name="f" format="2">
  <advance width="600"/>
  <unicode hex="0066"/>
  <outline>
    <contour>
      <point x="412" y="780" type="curve" smooth="yes"/>
      <point x="461" y="780"/>
      <point x="494" y="773"/>
      <point x="546" y="759" type="curve"/>
      <point x="532" y="700" type="line"/>
      <point x="488" y="711"/>
      <point x="458" y="716"/>
      <point x="420" y="716" type="curve" smooth="yes"/>
      <point x="337" y="716"/>
      <point x="311" y="671"/>
      <point x="311" y="615" type="curve" smooth="yes"/>
      <point x="311" y="520" type="line"/>
      <point x="497" y="520" type="line"/>
      <point x="497" y="456" type="line"/>
      <point x="311" y="456" type="line"/>
      <point x="311" y="0" type="line"/>
      <point x="231" y="0" type="line"/>
      <point x="231" y="456" type="line"/>
      <point x="61" y="456" type="line"/>
      <point x="61" y="520" type="line"/>
      <point x="231" y="520" type="line"/>
      <point x="231" y="615" type="line" smooth="yes"/>
      <point x="231" y="703"/>
      <point x="289" y="780"/>
    </contour>
  </outline>
</glyph>
<glyph name="g" format="2">
  <advance width="600"/>
  <unicode hex="0067"/>
  <outline>
    <contour>
      <point x="262" y="528" type="curve" smooth="yes"/>
      <point x="319" y="528"/>
      <point x="363" y="512"/>
      <point x="386" y="497" type="curve"/>
      <point x="510" y="520" type="line"/>
      <point x="543" y="520" type="line"/>
      <point x="543" y="451" type="line"/>
      <point x="432" y="451" type="line"/>
      <point x="451" y="425"/>
      <point x="460" y="396"/>
      <point x="460" y="359" type="curve" smooth="yes"/>
      <point x="460" y="254"/>
      <point x="380" y="190"/>
      <point x="262" y="190" type="curve" smooth="yes"/>
      <point x="221" y="190"/>
      <point x="195" y="197"/>
      <point x="195" y="197" type="curve"/>
      <point x="140" y="119" type="line"/>
      <point x="396" y="92" type="line" smooth="yes"/>
      <point x="485" y="83"/>
      <point x="546" y="45"/>
      <point x="546" y="-35" type="curve" smooth="yes"/>
      <point x="546" y="-126"/>
      <point x="451" y="-192"/>
      <point x="313" y="-192" type="curve" smooth="yes"/>
      <point x="206" y="-192"/>
      <point x="127" y="-169"/>
      <point x="46" y="-125" type="curve"/>
      <point x="46" y="-85" type="line"/>
      <point x="146" y="51" type="line"/>
      <point x="65" y="60" type="line"/>
      <point x="65" y="112" type="line"/>
      <point x="134" y="214" type="line"/>
      <point x="74" y="251"/>
      <point x="60" y="291"/>
      <point x="60" y="359" type="curve" smooth="yes"/>
      <point x="60" y="461"/>
      <point x="154" y="528"/>
    </contour>
    <contour>
      <point x="215" y="44" type="line"/>
      <point x="215" y="44"/>
      <point x="121" y="-85"/>
      <point x="121" y="-85" type="curve"/>
      <point x="167" y="-106"/>
      <point x="244" y="-128"/>
      <point x="315" y="-128" type="curve" smooth="yes"/>
      <point x="411" y="-128"/>
      <point x="466" y="-92"/>
      <point x="466" y="-39" type="curve" smooth="yes"/>
      <point x="466" y="0"/>
      <point x="439" y="22"/>
      <point x="387" y="27" type="curve" smooth="yes"/>
    </contour>
    <contour>
      <point x="262" y="464" type="curve" smooth="yes"/>
      <point x="194" y="464"/>
      <point x="140" y="428"/>
      <point x="140" y="359" type="curve" smooth="yes"/>
      <point x="140" y="284"/>
      <point x="189" y="248"/>
      <point x="262" y="248" type="curve" smooth="yes"/>
      <point x="334" y="248"/>
      <point x="380" y="286"/>
      <point x="380" y="359" type="curve" smooth="yes"/>
      <point x="380" y="426"/>
      <point x="330" y="464"/>
    </contour>
  </outline>
</glyph>
<glyph name="h" format="2">
  <advance width="640"/>
  <unicode hex="0068"/>
  <outline>
    <contour>
      <point x="80" y="707" type="line"/>
      <point x="160" y="707" type="line"/>
      <point x="160" y="443" type="line"/>
      <point x="211" y="500"/>
      <point x="266" y="528"/>
      <point x="324" y="528" type="curve" smooth="yes"/>
      <point x="442" y="528"/>
      <point x="496" y="464"/>
      <point x="496" y="330" type="curve" smooth="yes"/>
      <point x="496" y="0" type="line"/>
      <point x="416" y="0" type="line"/>
      <point x="416" y="328" type="line" smooth="yes"/>
      <point x="416" y="425"/>
      <point x="386" y="464"/>
      <point x="304" y="464" type="curve" smooth="yes"/>
      <point x="253" y="464"/>
      <point x="205" y="433"/>
      <point x="160" y="372" type="curve"/>
      <point x="160" y="0" type="line"/>
      <point x="80" y="0" type="line"/>
    </contour>
  </outline>
</glyph>
<glyph name="i" format="2">
  <advance width="612"/>
  <unicode hex="0069"/>
  <outline>
    <contour>
      <point x="280" y="739" type="curve" smooth="yes"/>
      <point x="312" y="739"/>
      <point x="335" y="713"/>
      <point x="335" y="684" type="curve" smooth="yes"/>
      <point x="335" y="655"/>
      <point x="312" y="629"/>
      <point x="280" y="629" type="curve" smooth="yes"/>
      <point x="248" y="629"/>
      <point x="225" y="655"/>
      <point x="225" y="684" type="curve" smooth="yes"/>
      <point x="225" y="713"/>
      <point x="248" y="739"/>
    </contour>
    <component base="dotlessi"/>
  </outline>
</glyph>
<glyph name="j" format="2">
  <advance width="640"/>
  <unicode hex="006A"/>
  <outline>
    <contour>
      <point x="426" y="739" type="curve" smooth="yes"/>
      <point x="458" y="739"/>
      <point x="482" y="713"/>
      <point x="482" y="684" type="curve" smooth="yes"/>
      <point x="482" y="655"/>
      <point x="458" y="629"/>
      <point x="426" y="629" type="curve" smooth="yes"/>
      <point x="397" y="629"/>
      <point x="372" y="652"/>
      <point x="372" y="684" type="curve" smooth="yes"/>
      <point x="372" y="716"/>
      <point x="397" y="739"/>
    </contour>
    <contour>
      <point x="154" y="520" type="line"/>
      <point x="474" y="520" type="line"/>
      <point x="474" y="10" type="line" smooth="yes"/>
      <point x="474" y="-116"/>
      <point x="390" y="-192"/>
      <point x="252" y="-192" type="curve" smooth="yes"/>
      <point x="166" y="-192"/>
      <point x="112" y="-165"/>
      <point x="64" y="-134" type="curve"/>
      <point x="102" y="-77" type="line"/>
      <point x="145" y="-107"/>
      <point x="182" y="-128"/>
      <point x="254" y="-128" type="curve" smooth="yes"/>
      <point x="332" y="-128"/>
      <point x="394" y="-94"/>
      <point x="394" y="10" type="curve" smooth="yes"/>
      <point x="394" y="456" type="line"/>
      <point x="154" y="456" type="line"/>
    </contour>
  </outline>
</glyph>
<glyph name="k" format="2">
  <advance width="612"/>
  <unicode hex="006B"/>
  <outline>
    <contour>
      <point x="80" y="708" type="line"/>
      <point x="160" y="708" type="line"/>
      <point x="160" y="309" type="line"/>
      <point x="276" y="309" type="line"/>
      <point x="463" y="520" type="line"/>
      <point x="561" y="520" type="line"/>
      <point x="337" y="275" type="line"/>
      <point x="564" y="0" type="line"/>
      <point x="466" y="0" type="line"/>
      <point x="271" y="245" type="line"/>
      <point x="160" y="245" type="line"/>
      <point x="160" y="0" type="line"/>
      <point x="80" y="0" type="line"/>
    </contour>
  </outline>
</glyph>
<glyph name="l" format="2">
  <advance width="576"/>
  <unicode hex="006C"/>
  <outline>
    <contour>
      <point x="40" y="772" type="line"/>
      <point x="316" y="772" type="line"/>
      <point x="316" y="64" type="line"/>
      <point x="512" y="64" type="line"/>
      <point x="512" y="0" type="line"/>
      <point x="236" y="0" type="line"/>
      <point x="236" y="708" type="line"/>
      <point x="40" y="708" type="line"/>
    </contour>
  </outline>
</glyph>
<glyph name="m" format="2">
  <advance width="600"/>
  <unicode hex="006D"/>
  <outline>
    <contour>
      <point x="51" y="520" type="line"/>
      <point x="115" y="520" type="line"/>
      <point x="125" y="458" type="line"/>
      <point x="136" y="499"/>
      <point x="194" y="528"/>
      <point x="236" y="528" type="curve" smooth="yes"/>
      <point x="287" y="528"/>
      <point x="317" y="508"/>
      <point x="330" y="461" type="curve"/>
      <point x="354" y="518"/>
      <point x="394" y="528"/>
      <point x="431" y="528" type="curve" smooth="yes"/>
      <point x="501" y="528"/>
      <point x="549" y="479"/>
      <point x="549" y="405" type="curve" smooth="yes"/>
      <point x="549" y="0" type="line"/>
      <point x="468" y="0" type="line"/>
      <point x="468" y="405" type="line" smooth="yes"/>
      <point x="468" y="446"/>
      <point x="445" y="464"/>
      <point x="413" y="464" type="curve" smooth="yes"/>
      <point x="380" y="464"/>
      <point x="356" y="441"/>
      <point x="341" y="405" type="curve"/>
      <point x="341" y="0" type="line"/>
      <point x="258" y="0" type="line"/>
      <point x="258" y="405" type="line" smooth="yes"/>
      <point x="258" y="443"/>
      <point x="241" y="464"/>
      <point x="208" y="464" type="curve" smooth="yes"/>
      <point x="171" y="464"/>
      <point x="142" y="433"/>
      <point x="133" y="405" type="curve"/>
      <point x="133" y="0" type="line"/>
      <point x="51" y="0" type="line"/>
    </contour>
  </outline>
</glyph>
<glyph name="n" format="2">
  <advance width="640"/>
  <unicode hex="006E"/>
  <anchor x="300" y="687" name="AccentCenter"/>
  <outline>
    <contour>
      <point x="96" y="520" type="line"/>
      <point x="157" y="520" type="line"/>
      <point x="176" y="438" type="line"/>
      <point x="221" y="498"/>
      <point x="293" y="528"/>
      <point x="357" y="528" type="curve" smooth="yes"/>
      <point x="473" y="528"/>
      <point x="544" y="456"/>
      <point x="544" y="336" type="curve" smooth="yes"/>
      <point x="544" y="0" type="line"/>
      <point x="464" y="0" type="line"/>
      <point x="464" y="334" type="line" smooth="yes"/>
      <point x="464" y="422"/>
      <point x="421" y="462"/>
      <point x="340" y="462" type="curve" smooth="yes"/>
      <point x="279" y="462"/>
      <point x="214" y="436"/>
      <point x="176" y="383" type="curve"/>
      <point x="176" y="0" type="line"/>
      <point x="96" y="0" type="line"/>
    </contour>
  </outline>
</glyph>
<glyph name="o" format="2">
  <advance width="640"/>
  <unicode hex="006F"/>
  <anchor x="295" y="687" name="AccentCenter"/>
  <outline>
    <contour>
      <point x="322" y="464" type="curve" smooth="yes"/>
      <point x="215" y="464"/>
      <point x="144" y="392"/>
      <point x="144" y="259" type="curve" smooth="yes"/>
      <point x="144" y="127"/>
      <point x="215" y="56"/>
      <point x="322" y="56" type="curve" smooth="yes"/>
      <point x="430" y="56"/>
      <point x="496" y="127"/>
      <point x="496" y="259" type="curve" smooth="yes"/>
      <point x="496" y="391"/>
      <point x="428" y="464"/>
    </contour>
    <contour>
      <point x="322" y="528" type="curve" smooth="yes"/>
      <point x="477" y="528"/>
      <point x="576" y="427"/>
      <point x="576" y="259" type="curve" smooth="yes"/>
      <point x="576" y="100"/>
      <point x="473" y="-8"/>
      <point x="322" y="-8" type="curve" smooth="yes"/>
      <point x="172" y="-8"/>
      <point x="64" y="96"/>
      <point x="64" y="259" type="curve" smooth="yes"/>
      <point x="64" y="426"/>
      <point x="167" y="528"/>
    </contour>
  </outline>
</glyph>
<glyph name="p" format="2">
  <advance width="640"/>
  <unicode hex="0070"/>
  <outline>
    <contour>
      <point x="329" y="464" type="curve" smooth="yes"/>
      <point x="256" y="464"/>
      <point x="195" y="434"/>
      <point x="160" y="372" type="curve"/>
      <point x="160" y="155" type="line"/>
      <point x="198" y="86"/>
      <point x="256" y="56"/>
      <point x="329" y="56" type="curve" smooth="yes"/>
      <point x="438" y="56"/>
      <point x="496" y="133"/>
      <point x="496" y="263" type="curve" smooth="yes"/>
      <point x="496" y="400"/>
      <point x="447" y="464"/>
    </contour>
    <contour>
      <point x="80" y="520" type="line"/>
      <point x="142" y="520" type="line"/>
      <point x="160" y="430" type="line"/>
      <point x="214" y="495"/>
      <point x="288" y="528"/>
      <point x="356" y="528" type="curve" smooth="yes"/>
      <point x="509" y="528"/>
      <point x="576" y="433"/>
      <point x="576" y="260" type="curve" smooth="yes"/>
      <point x="576" y="96"/>
      <point x="501" y="-8"/>
      <point x="356" y="-8" type="curve" smooth="yes"/>
      <point x="339" y="-8"/>
      <point x="218" y="-5"/>
      <point x="160" y="78" type="curve"/>
      <point x="160" y="-192" type="line"/>
      <point x="80" y="-192" type="line"/>
    </contour>
  </outline>
</glyph>
<glyph name="q" format="2">
  <advance width="600"/>
  <unicode hex="0071"/>
  <outline>
    <contour>
      <point x="292" y="464" type="curve" smooth="yes"/>
      <point x="199" y="464"/>
      <point x="127" y="399"/>
      <point x="127" y="263" type="curve" smooth="yes"/>
      <point x="127" y="135"/>
      <point x="177" y="56"/>
      <point x="292" y="56" type="curve" smooth="yes"/>
      <point x="355" y="56"/>
      <point x="407" y="94"/>
      <point x="428" y="155" type="curve"/>
      <point x="428" y="372" type="line"/>
      <point x="396" y="430"/>
      <point x="345" y="464"/>
    </contour>
    <contour>
      <point x="446" y="520" type="line"/>
      <point x="508" y="520" type="line"/>
      <point x="508" y="-192" type="line"/>
      <point x="428" y="-192" type="line"/>
      <point x="428" y="71" type="line"/>
      <point x="383" y="9"/>
      <point x="326" y="-8"/>
      <point x="268" y="-8" type="curve" smooth="yes"/>
      <point x="140" y="-8"/>
      <point x="48" y="90"/>
      <point x="48" y="260" type="curve" smooth="yes"/>
      <point x="48" y="435"/>
      <point x="137" y="528"/>
      <point x="272" y="528" type="curve" smooth="yes"/>
      <point x="329" y="528"/>
      <point x="397" y="505"/>
      <point x="432" y="438" type="curve"/>
    </contour>
  </outline>
</glyph>
<glyph name="r" format="2">
  <advance width="576"/>
  <unicode hex="0072"/>
  <outline>
    <contour>
      <point x="61" y="528" type="line"/>
      <point x="215" y="433" type="line"/>
      <point x="243" y="489"/>
      <point x="291" y="528"/>
      <point x="388" y="528" type="curve" smooth="yes"/>
      <point x="415" y="528"/>
      <point x="479" y="518"/>
      <point x="521" y="507" type="curve"/>
      <point x="507" y="445" type="line"/>
      <point x="416" y="460" type="line" smooth="yes"/>
      <point x="401" y="462"/>
      <point x="388" y="462"/>
      <point x="385" y="462" type="curve" smooth="yes"/>
      <point x="308" y="462"/>
      <point x="267" y="418"/>
      <point x="250" y="361" type="curve"/>
      <point x="250" y="0" type="line"/>
      <point x="170" y="0" type="line"/>
      <point x="170" y="377" type="line"/>
      <point x="22" y="466" type="line"/>
    </contour>
  </outline>
</glyph>
<glyph name="s" format="2">
  <advance width="600"/>
  <unicode hex="0073"/>
  <outline>
    <contour>
      <point x="301" y="528" type="curve" smooth="yes"/>
      <point x="388" y="528"/>
      <point x="446" y="513"/>
      <point x="510" y="474" type="curve"/>
      <point x="479" y="416" type="line"/>
      <point x="431" y="447"/>
      <point x="359" y="464"/>
      <point x="304" y="464" type="curve" smooth="yes"/>
      <point x="230" y="464"/>
      <point x="163" y="445"/>
      <point x="163" y="391" type="curve" smooth="yes"/>
      <point x="163" y="351"/>
      <point x="181" y="325"/>
      <point x="267" y="309" type="curve" smooth="yes"/>
      <point x="372" y="289" type="line" smooth="yes"/>
      <point x="472" y="270"/>
      <point x="532" y="223"/>
      <point x="532" y="138" type="curve" smooth="yes"/>
      <point x="532" y="33"/>
      <point x="431" y="-8"/>
      <point x="297" y="-8" type="curve" smooth="yes"/>
      <point x="214" y="-8"/>
      <point x="137" y="8"/>
      <point x="76" y="46" type="curve"/>
      <point x="106" y="106" type="line"/>
      <point x="158" y="75"/>
      <point x="234" y="57"/>
      <point x="295" y="57" type="curve" smooth="yes"/>
      <point x="406" y="57"/>
      <point x="459" y="83"/>
      <point x="459" y="134" type="curve" smooth="yes"/>
      <point x="459" y="186"/>
      <point x="431" y="208"/>
      <point x="348" y="223" type="curve" smooth="yes"/>
      <point x="243" y="242" type="line" smooth="yes"/>
      <point x="155" y="258"/>
      <point x="90" y="295"/>
      <point x="90" y="388" type="curve" smooth="yes"/>
      <point x="90" y="461"/>
      <point x="155" y="528"/>
    </contour>
  </outline>
</glyph>
<glyph name="t" format="2">
  <advance width="612"/>
  <unicode hex="0074"/>
  <outline>
    <contour>
      <point x="235" y="649" type="line"/>
      <point x="313" y="687" type="line"/>
      <point x="313" y="520" type="line"/>
      <point x="527" y="520" type="line"/>
      <point x="527" y="456" type="line"/>
      <point x="313" y="456" type="line"/>
      <point x="313" y="128" type="line" smooth="yes"/>
      <point x="313" y="86"/>
      <point x="339" y="55"/>
      <point x="388" y="55" type="curve"/>
      <point x="438" y="55"/>
      <point x="485" y="69"/>
      <point x="524" y="83" type="curve"/>
      <point x="541" y="27" type="line"/>
      <point x="506" y="12"/>
      <point x="439" y="-8"/>
      <point x="386" y="-8" type="curve" smooth="yes"/>
      <point x="279" y="-8"/>
      <point x="235" y="50"/>
      <point x="235" y="128" type="curve" smooth="yes"/>
      <point x="235" y="456" type="line"/>
      <point x="61" y="456" type="line"/>
      <point x="61" y="520" type="line"/>
      <point x="235" y="520" type="line"/>
    </contour>
  </outline>
</glyph>
<glyph name="u" format="2">
  <advance width="612"/>
  <unicode hex="0075"/>
  <anchor x="295" y="687" name="AccentCenter"/>
  <outline>
    <contour>
      <point x="92" y="520" type="line"/>
      <point x="172" y="520" type="line"/>
      <point x="172" y="197" type="line" smooth="yes"/>
      <point x="172" y="103"/>
      <point x="195" y="56"/>
      <point x="266" y="56" type="curve" smooth="yes"/>
      <point x="336" y="56"/>
      <point x="391" y="88"/>
      <point x="450" y="168" type="curve"/>
      <point x="450" y="520" type="line"/>
      <point x="528" y="520" type="line"/>
      <point x="528" y="0" type="line"/>
      <point x="466" y="0" type="line"/>
      <point x="452" y="103" type="line"/>
      <point x="436" y="84"/>
      <point x="370" y="-8"/>
      <point x="241" y="-8" type="curve" smooth="yes"/>
      <point x="198" y="-8"/>
      <point x="92" y="-8"/>
      <point x="92" y="195" type="curve" smooth="yes"/>
    </contour>
  </outline>
</glyph>
<glyph name="v" format="2">
  <advance width="612"/>
  <unicode hex="0076"/>
  <outline>
    <contour>
      <point x="50" y="520" type="line"/>
      <point x="136" y="520" type="line"/>
      <point x="306" y="77" type="line"/>
      <point x="476" y="520" type="line"/>
      <point x="562" y="520" type="line"/>
      <point x="351" y="0" type="line"/>
      <point x="261" y="0" type="line"/>
    </contour>
  </outline>
</glyph>
<glyph name="w" format="2">
  <advance width="640"/>
  <unicode hex="0077"/>
  <outline>
    <contour>
      <point x="32" y="520" type="line"/>
      <point x="122" y="520" type="line"/>
      <point x="179" y="110" type="line"/>
      <point x="282" y="398" type="line"/>
      <point x="360" y="398" type="line"/>
      <point x="455" y="114" type="line"/>
      <point x="516" y="520" type="line"/>
      <point x="608" y="520" type="line"/>
      <point x="501" y="0" type="line"/>
      <point x="413" y="0" type="line"/>
      <point x="321" y="305" type="line"/>
      <point x="222" y="0" type="line"/>
      <point x="135" y="0" type="line"/>
    </contour>
  </outline>
</glyph>
<glyph name="x" format="2">
  <advance width="640"/>
  <unicode hex="0078"/>
  <outline>
    <contour>
      <point x="32" y="520" type="line"/>
      <point x="135" y="520" type="line"/>
      <point x="290" y="311" type="line"/>
      <point x="442" y="520" type="line"/>
      <point x="544" y="520" type="line"/>
      <point x="339" y="260" type="line"/>
      <point x="544" y="0" type="line"/>
      <point x="442" y="0" type="line"/>
      <point x="290" y="211" type="line"/>
      <point x="135" y="0" type="line"/>
      <point x="32" y="0" type="line"/>
      <point x="238" y="260" type="line"/>
    </contour>
  </outline>
</glyph>
<glyph name="y" format="2">
  <advance width="600"/>
  <unicode hex="0079"/>
  <anchor x="309" y="687" name="AccentCenter"/>
  <outline>
    <contour>
      <point x="42" y="520" type="line"/>
      <point x="141" y="520" type="line"/>
      <point x="292" y="133" type="line"/>
      <point x="306" y="64" type="line"/>
      <point x="326" y="133" type="line"/>
      <point x="479" y="520" type="line"/>
      <point x="571" y="520" type="line"/>
      <point x="253" y="-192" type="line"/>
      <point x="167" y="-192" type="line"/>
      <point x="270" y="22" type="line"/>
    </contour>
  </outline>
</glyph>
<glyph name="z" format="2">
  <advance width="640"/>
  <unicode hex="007A"/>
  <outline>
    <contour>
      <point x="77" y="520" type="line"/>
      <point x="498" y="520" type="line"/>
      <point x="498" y="451" type="line"/>
      <point x="170" y="65" type="line"/>
      <point x="504" y="65" type="line"/>
      <point x="504" y="0" type="line"/>
      <point x="75" y="0" type="line"/>
      <point x="75" y="65" type="line"/>
      <point x="407" y="451" type="line"/>
      <point x="77" y="451" type="line"/>
    </contour>
  </outline>
</glyph>
<glyph name="braceleft" format="2">
  <advance width="576"/>
  <unicode hex="007B"/>
  <outline>
    <contour>
      <point x="286" y="814" type="curve"/>
      <point x="286" y="748" type="line"/>
      <point x="219" y="748"/>
      <point x="174" y="690"/>
      <point x="174" y="630" type="curve"/>
      <point x="206" y="512" type="line"/>
      <point x="206" y="468"/>
      <point x="188" y="411"/>
      <point x="130" y="376" type="curve"/>
      <point x="188" y="352"/>
      <point x="206" y="282"/>
      <point x="206" y="248" type="curve"/>
      <point x="174" y="116" type="line"/>
      <point x="174" y="52"/>
      <point x="214" y="0"/>
      <point x="286" y="0" type="curve"/>
      <point x="286" y="-67" type="line"/>
      <point x="177" y="-66"/>
      <point x="94" y="19"/>
      <point x="94" y="115" type="curve"/>
      <point x="126" y="261" type="line"/>
      <point x="126" y="307"/>
      <point x="80" y="344"/>
      <point x="36" y="344" type="curve"/>
      <point x="36" y="410" type="line"/>
      <point x="84" y="410"/>
      <point x="126" y="452"/>
      <point x="126" y="502" type="curve"/>
      <point x="94" y="631" type="line"/>
      <point x="94" y="727"/>
      <point x="178" y="814"/>
    </contour>
  </outline>
</glyph>
<glyph name="bar" format="2">
  <advance width="612"/>
  <unicode hex="007C"/>
  <outline>
    <contour>
      <point x="248" y="819" type="line"/>
      <point x="328" y="819" type="line"/>
      <point x="328" y="-66" type="line"/>
      <point x="248" y="-66" type="line"/>
    </contour>
  </outline>
</glyph>
<glyph name="braceright" format="2">
  <advance width="640"/>
  <unicode hex="007D"/>
  <outline>
    <contour>
      <point x="170" y="814" type="line"/>
      <point x="278" y="814"/>
      <point x="372" y="727"/>
      <point x="372" y="631" type="curve"/>
      <point x="324" y="502" type="line"/>
      <point x="324" y="452"/>
      <point x="366" y="410"/>
      <point x="414" y="410" type="curve"/>
      <point x="496" y="410" type="line"/>
      <point x="496" y="344" type="line"/>
      <point x="414" y="344" type="line"/>
      <point x="370" y="344"/>
      <point x="324" y="307"/>
      <point x="324" y="261" type="curve"/>
      <point x="372" y="115" type="line"/>
      <point x="372" y="19"/>
      <point x="279" y="-66"/>
      <point x="170" y="-67" type="curve"/>
      <point x="96" y="-67" type="line"/>
      <point x="96" y="0" type="line"/>
      <point x="170" y="0" type="line"/>
      <point x="242" y="0"/>
      <point x="292" y="52"/>
      <point x="292" y="116" type="curve"/>
      <point x="244" y="248" type="line"/>
      <point x="244" y="282"/>
      <point x="262" y="352"/>
      <point x="320" y="376" type="curve"/>
      <point x="262" y="411"/>
      <point x="244" y="468"/>
      <point x="244" y="512" type="curve"/>
      <point x="292" y="630" type="line"/>
      <point x="292" y="690"/>
      <point x="237" y="748"/>
      <point x="170" y="748" type="curve"/>
      <point x="96" y="748" type="line"/>
      <point x="96" y="814" type="line"/>
    </contour>
  </outline>
</glyph>
<glyph name="asciitilde" format="2">
  <advance width="600"/>
  <unicode hex="007E"/>
  <outline>
    <contour>
      <point x="45" y="220" type="line"/>
      <point x="54" y="317"/>
      <point x="98" y="396"/>
      <point x="196" y="396" type="curve" smooth="yes"/>
      <point x="292" y="396"/>
      <point x="339" y="286"/>
      <point x="405" y="286" type="curve" smooth="yes"/>
      <point x="456" y="286"/>
      <point x="477" y="328"/>
      <point x="483" y="396" type="curve"/>
      <point x="559" y="389" type="line"/>
      <point x="551" y="282"/>
      <point x="498" y="215"/>
      <point x="400" y="215" type="curve" smooth="yes"/>
      <point x="298" y="215"/>
      <point x="272" y="326"/>
      <point x="196" y="326" type="curve" smooth="yes"/>
      <point x="130" y="326"/>
      <point x="121" y="259"/>
      <point x="114" y="213" type="curve"/>
    </contour>
  </outline>
</glyph>
<glyph name="cent" format="2">
  <advance width="576"/>
  <unicode hex="00A2"/>
  <outline>
    <component base="c"/>
    <contour>
      <point x="243" y="618" type="line"/>
      <point x="321" y="618" type="line"/>
      <point x="321" y="-94" type="line"/>
      <point x="243" y="-94" type="line"/>
    </contour>
  </outline>
</glyph>
<glyph name="sterling" format="2">
  <advance width="576"/>
  <unicode hex="00A3"/>
  <outline>
    <contour>
      <point x="352" y="716" type="curve" smooth="yes"/>
      <point x="461" y="716"/>
      <point x="525" y="662"/>
      <point x="554" y="636" type="curve"/>
      <point x="522" y="584" type="line"/>
      <point x="467" y="630"/>
      <point x="419" y="651"/>
      <point x="349" y="651" type="curve" smooth="yes"/>
      <point x="273" y="651"/>
      <point x="196" y="607"/>
      <point x="196" y="526" type="curve" smooth="yes"/>
      <point x="196" y="489"/>
      <point x="203" y="463"/>
      <point x="238" y="382" type="curve"/>
      <point x="428" y="382" type="line"/>
      <point x="428" y="312" type="line"/>
      <point x="264" y="312" type="line"/>
      <point x="269" y="292"/>
      <point x="272" y="274"/>
      <point x="272" y="258" type="curve" smooth="yes"/>
      <point x="272" y="157"/>
      <point x="229" y="107"/>
      <point x="167" y="69" type="curve"/>
      <point x="540" y="69" type="line"/>
      <point x="540" y="0" type="line"/>
      <point x="62" y="0" type="line"/>
      <point x="62" y="85" type="line"/>
      <point x="150" y="104"/>
      <point x="194" y="165"/>
      <point x="194" y="268" type="curve" smooth="yes"/>
      <point x="194" y="281"/>
      <point x="192" y="296"/>
      <point x="188" y="312" type="curve"/>
      <point x="34" y="312" type="line"/>
      <point x="34" y="382" type="line"/>
      <point x="163" y="382" type="line"/>
      <point x="143" y="422"/>
      <point x="120" y="478"/>
      <point x="120" y="526" type="curve" smooth="yes"/>
      <point x="120" y="595"/>
      <point x="180" y="716"/>
    </contour>
  </outline>
</glyph>
<glyph name="currency" format="2">
  <advance width="600"/>
  <unicode hex="00A4"/>
  <outline>
    <contour>
      <point x="468" y="175" type="line"/>
      <point x="587" y="56" type="line"/>
      <point x="529" y="-2" type="line"/>
      <point x="410" y="116" type="line"/>
    </contour>
    <contour>
      <point x="190" y="116" type="line"/>
      <point x="71" y="-2" type="line"/>
      <point x="13" y="56" type="line"/>
      <point x="132" y="174" type="line"/>
    </contour>
    <contour>
      <point x="133" y="347" type="line"/>
      <point x="14" y="466" type="line"/>
      <point x="71" y="523" type="line"/>
      <point x="190" y="405" type="line"/>
    </contour>
    <contour>
      <point x="409" y="404" type="line"/>
      <point x="529" y="523" type="line"/>
      <point x="587" y="465" type="line"/>
      <point x="467" y="346" type="line"/>
    </contour>
    <contour>
      <point x="300" y="425" type="curve" smooth="yes"/>
      <point x="203" y="425"/>
      <point x="140" y="351"/>
      <point x="140" y="259" type="curve" smooth="yes"/>
      <point x="140" y="167"/>
      <point x="202" y="94"/>
      <point x="300" y="94" type="curve" smooth="yes"/>
      <point x="397" y="94"/>
      <point x="460" y="167"/>
      <point x="460" y="259" type="curve" smooth="yes"/>
      <point x="460" y="351"/>
      <point x="397" y="425"/>
    </contour>
    <contour>
      <point x="300" y="22" type="curve" smooth="yes"/>
      <point x="171" y="22"/>
      <point x="68" y="128"/>
      <point x="68" y="260" type="curve" smooth="yes"/>
      <point x="68" y="392"/>
      <point x="171" y="497"/>
      <point x="300" y="497" type="curve" smooth="yes"/>
      <point x="429" y="497"/>
      <point x="532" y="392"/>
      <point x="532" y="260" type="curve" smooth="yes"/>
      <point x="532" y="128"/>
      <point x="429" y="22"/>
    </contour>
  </outline>
</glyph>
<glyph name="copyright" format="2">
  <advance width="640"/>
  <unicode hex="00A9"/>
  <outline>
    <contour>
      <point x="436" y="744" type="curve" smooth="yes"/>
      <point x="222" y="744"/>
      <point x="48" y="570"/>
      <point x="48" y="356" type="curve" smooth="yes"/>
      <point x="48" y="141"/>
      <point x="222" y="-32"/>
      <point x="436" y="-32" type="curve" smooth="yes"/>
      <point x="651" y="-32"/>
      <point x="824" y="141"/>
      <point x="824" y="356" type="curve" smooth="yes"/>
      <point x="824" y="570"/>
      <point x="651" y="744"/>
    </contour>
    <contour>
      <point x="436" y="687" type="curve" smooth="yes"/>
      <point x="617" y="687"/>
      <point x="762" y="537"/>
      <point x="762" y="356" type="curve" smooth="yes"/>
      <point x="762" y="175"/>
      <point x="617" y="25"/>
      <point x="436" y="25" type="curve" smooth="yes"/>
      <point x="255" y="25"/>
      <point x="110" y="175"/>
      <point x="110" y="356" type="curve" smooth="yes"/>
      <point x="110" y="537"/>
      <point x="255" y="687"/>
    </contour>
    <contour>
      <point x="434" y="594" type="curve" smooth="yes"/>
      <point x="503" y="594"/>
      <point x="544" y="578"/>
      <point x="602" y="528" type="curve"/>
      <point x="571" y="482" type="line"/>
      <point x="525" y="523"/>
      <point x="493" y="537"/>
      <point x="438" y="537" type="curve" smooth="yes"/>
      <point x="344" y="537"/>
      <point x="296" y="476"/>
      <point x="296" y="354" type="curve" smooth="yes"/>
      <point x="296" y="233"/>
      <point x="344" y="178"/>
      <point x="436" y="178" type="curve" smooth="yes"/>
      <point x="499" y="178"/>
      <point x="534" y="192"/>
      <point x="574" y="234" type="curve"/>
      <point x="606" y="188" type="line"/>
      <point x="559" y="141"/>
      <point x="506" y="120"/>
      <point x="432" y="120" type="curve" smooth="yes"/>
      <point x="303" y="120"/>
      <point x="225" y="205"/>
      <point x="225" y="354" type="curve" smooth="yes"/>
      <point x="225" y="508"/>
      <point x="300" y="594"/>
    </contour>
  </outline>
</glyph>
<glyph name="mu" format="2">
  <advance width="600"/>
  <unicode hex="00B5"/>
  <outline>
    <contour>
      <point x="71" y="519" type="line"/>
      <point x="149" y="519" type="line"/>
      <point x="149" y="128" type="line"/>
      <point x="157" y="112"/>
      <point x="193" y="56"/>
      <point x="285" y="56" type="curve" smooth="yes"/>
      <point x="352" y="56"/>
      <point x="415" y="99"/>
      <point x="415" y="220" type="curve" smooth="yes"/>
      <point x="415" y="519" type="line"/>
      <point x="493" y="519" type="line"/>
      <point x="493" y="102" type="line"/>
      <point x="493" y="68"/>
      <point x="506" y="57"/>
      <point x="532" y="57" type="curve"/>
      <point x="549" y="57" type="line"/>
      <point x="549" y="0" type="line"/>
      <point x="543" y="-2"/>
      <point x="517" y="-8"/>
      <point x="499" y="-8" type="curve"/>
      <point x="447" y="-8"/>
      <point x="423" y="23"/>
      <point x="418" y="70" type="curve"/>
      <point x="393" y="24"/>
      <point x="347" y="-8"/>
      <point x="283" y="-8" type="curve" smooth="yes"/>
      <point x="224" y="-8"/>
      <point x="178" y="5"/>
      <point x="138" y="56" type="curve"/>
      <point x="146" y="38"/>
      <point x="149" y="23"/>
      <point x="149" y="4" type="curve"/>
      <point x="149" y="-191" type="line"/>
      <point x="71" y="-191" type="line"/>
    </contour>
  </outline>
</glyph>
<glyph name="paragraph" format="2">
  <advance width="512"/>
  <unicode hex="00B6"/>
  <outline>
    <contour>
      <point x="370" y="0" type="line"/>
      <point x="370" y="708" type="line"/>
      <point x="514" y="708" type="line"/>
      <point x="514" y="644" type="line"/>
      <point x="446" y="644" type="line"/>
      <point x="446" y="65" type="line"/>
      <point x="514" y="65" type="line"/>
      <point x="514" y="0" type="line"/>
    </contour>
    <contour>
      <point x="38" y="544" type="curve" smooth="yes"/>
      <point x="38" y="640"/>
      <point x="111" y="708"/>
      <point x="212" y="708" type="curve" smooth="yes"/>
      <point x="302" y="708" type="line"/>
      <point x="302" y="0" type="line"/>
      <point x="226" y="0" type="line"/>
      <point x="226" y="367" type="line"/>
      <point x="212" y="367" type="line" smooth="yes"/>
      <point x="106" y="367"/>
      <point x="38" y="437"/>
    </contour>
  </outline>
</glyph>
<glyph name="AE" format="2">
  <advance width="640"/>
  <unicode hex="00C6"/>
  <outline>
    <contour>
      <point x="372" y="708" type="line"/>
      <point x="854" y="708" type="line"/>
      <point x="854" y="642" type="line"/>
      <point x="494" y="642" type="line"/>
      <point x="494" y="418" type="line"/>
      <point x="776" y="418" type="line"/>
      <point x="776" y="348" type="line"/>
      <point x="494" y="348" type="line"/>
      <point x="494" y="66" type="line"/>
      <point x="854" y="66" type="line"/>
      <point x="854" y="0" type="line"/>
      <point x="418" y="0" type="line"/>
      <point x="418" y="182" type="line"/>
      <point x="204" y="182" type="line"/>
      <point x="118" y="0" type="line"/>
      <point x="36" y="0" type="line"/>
    </contour>
    <contour>
      <point x="418" y="638" type="line"/>
      <point x="235" y="248" type="line"/>
      <point x="418" y="248" type="line"/>
    </contour>
  </outline>
</glyph>
<glyph name="Eth" format="2">
  <advance width="600"/>
  <unicode hex="00D0"/>
  <outline>
    <contour>
      <point x="25" y="400" type="line"/>
      <point x="261" y="400" type="line"/>
      <point x="261" y="336" type="line"/>
      <point x="25" y="336" type="line"/>
    </contour>
    <component base="D"/>
  </outline>
</glyph>
<glyph name="Thorn" format="2">
  <advance width="612"/>
  <unicode hex="00DE"/>
  <outline>
    <contour>
      <point x="86" y="708" type="line"/>
      <point x="166" y="708" type="line"/>
      <point x="166" y="570" type="line"/>
      <point x="288" y="570" type="line" smooth="yes"/>
      <point x="418" y="570"/>
      <point x="504" y="485"/>
      <point x="504" y="356" type="curve" smooth="yes"/>
      <point x="504" y="236"/>
      <point x="410" y="148"/>
      <point x="282" y="148" type="curve" smooth="yes"/>
      <point x="166" y="148" type="line"/>
      <point x="166" y="0" type="line"/>
      <point x="86" y="0" type="line"/>
    </contour>
    <contour>
      <point x="166" y="506" type="line"/>
      <point x="166" y="214" type="line"/>
      <point x="282" y="214" type="line" smooth="yes"/>
      <point x="370" y="214"/>
      <point x="424" y="268"/>
      <point x="424" y="357" type="curve" smooth="yes"/>
      <point x="424" y="450"/>
      <point x="373" y="506"/>
      <point x="288" y="506" type="curve" smooth="yes"/>
    </contour>
  </outline>
</glyph>
<glyph name="dotlessi" format="2">
  <advance width="600"/>
  <unicode hex="0131"/>
  <anchor x="291" y="687" name="AccentCenter"/>
  <outline>
    <contour>
      <point x="58" y="520" type="line"/>
      <point x="330" y="520" type="line"/>
      <point x="330" y="64" type="line"/>
      <point x="529" y="64" type="line"/>
      <point x="529" y="0" type="line"/>
      <point x="250" y="0" type="line"/>
      <point x="250" y="456" type="line"/>
      <point x="58" y="456" type="line"/>
    </contour>
  </outline>
</glyph>
<glyph name="uni0304" format="2">
  <unicode hex="0304"/>
  <anchor x="0" y="833" name="AccentCenter"/>
  <outline>
    <contour>
      <point x="-128" y="865" type="line"/>
      <point x="128" y="865" type="line"/>
      <point x="128" y="801" type="line"/>
      <point x="-128" y="801" type="line"/>
    </contour>
  </outline>
</glyph>
<glyph name="Euro" format="2">
  <advance width="576"/>
  <unicode hex="20AC"/>
  <outline>
    <contour>
      <point x="410" y="716" type="curve" smooth="yes"/>
      <point x="505" y="716"/>
      <point x="568" y="697"/>
      <point x="635" y="634" type="curve"/>
      <point x="603" y="582" type="line"/>
      <point x="531" y="646"/>
      <point x="477" y="650"/>
      <point x="411" y="650" type="curve" smooth="yes"/>
      <point x="363" y="650"/>
      <point x="250" y="634"/>
      <point x="204" y="492" type="curve"/>
      <point x="513" y="492" type="line"/>
      <point x="489" y="422" type="line"/>
      <point x="188" y="422" type="line"/>
      <point x="185" y="400"/>
      <point x="184" y="377"/>
      <point x="184" y="352" type="curve" smooth="yes"/>
      <point x="184" y="335"/>
      <point x="185" y="318"/>
      <point x="186" y="302" type="curve"/>
      <point x="447" y="302" type="line"/>
      <point x="425" y="232" type="line"/>
      <point x="198" y="232" type="line"/>
      <point x="206" y="200"/>
      <point x="246" y="58"/>
      <point x="403" y="58" type="curve" smooth="yes"/>
      <point x="451" y="58"/>
      <point x="529" y="63"/>
      <point x="613" y="126" type="curve"/>
      <point x="637" y="68" type="line"/>
      <point x="582" y="30"/>
      <point x="506" y="-8"/>
      <point x="402" y="-8" type="curve" smooth="yes"/>
      <point x="347" y="-8"/>
      <point x="169" y="10"/>
      <point x="118" y="232" type="curve"/>
      <point x="30" y="232" type="line"/>
      <point x="30" y="302" type="line"/>
      <point x="108" y="302" type="line"/>
      <point x="107" y="318"/>
      <point x="106" y="335"/>
      <point x="106" y="352" type="curve" smooth="yes"/>
      <point x="106" y="377"/>
      <point x="107" y="400"/>
      <point x="110" y="422" type="curve"/>
      <point x="30" y="422" type="line"/>
      <point x="30" y="492" type="line"/>
      <point x="123" y="492" type="line"/>
      <point x="137" y="543"/>
      <point x="201" y="716"/>
    </contour>
  </outline>
</glyph>
<glyph name="a.ss01" format="2">
  <advance width="600"/>
  <outline>
    <contour>
      <point x="293" y="528" type="curve" smooth="yes"/>
      <point x="431" y="528"/>
      <point x="498" y="452"/>
      <point x="498" y="321" type="curve" smooth="yes"/>
      <point x="498" y="0" type="line"/>
      <point x="498" y="0"/>
      <point x="418" y="0"/>
      <point x="418" y="0" type="curve" smooth="yes"/>
      <point x="418" y="0"/>
      <point x="418" y="97"/>
      <point x="418" y="97" type="curve"/>
      <point x="408" y="69"/>
      <point x="358" y="-8"/>
      <point x="249" y="-8" type="curve" smooth="yes"/>
      <point x="150" y="-8"/>
      <point x="76" y="46"/>
      <point x="76" y="138" type="curve" smooth="yes"/>
      <point x="76" y="234"/>
      <point x="143" y="303"/>
      <point x="276" y="303" type="curve" smooth="yes"/>
      <point x="418" y="303" type="line"/>
      <point x="418" y="335" type="line" smooth="yes"/>
      <point x="418" y="414"/>
      <point x="378" y="466"/>
      <point x="290" y="466" type="curve" smooth="yes"/>
      <point x="225" y="466"/>
      <point x="181" y="452"/>
      <point x="130" y="431" type="curve"/>
      <point x="111" y="487" type="line"/>
      <point x="190" y="522"/>
      <point x="228" y="528"/>
    </contour>
    <contour>
      <point x="418" y="241" type="line"/>
      <point x="273" y="241" type="line" smooth="yes"/>
      <point x="187" y="241"/>
      <point x="156" y="204"/>
      <point x="156" y="142" type="curve" smooth="yes"/>
      <point x="156" y="78"/>
      <point x="204" y="56"/>
      <point x="256" y="56" type="curve" smooth="yes"/>
      <point x="343" y="56"/>
      <point x="400" y="125"/>
      <point x="418" y="168" type="curve"/>
    </contour>
  </outline>
</glyph>
<glyph name="ampersand_ampersand.liga" format="2">
  <advance width="1200"/>
  <outline>
    <contour>
      <point x="419" y="716" type="curve" smooth="yes"/>
      <point x="465" y="716"/>
      <point x="500" y="709"/>
      <point x="556" y="681" type="curve"/>
      <point x="530" y="622" type="line"/>
      <point x="495" y="639"/>
      <point x="467" y="652"/>
      <point x="422" y="652" type="curve" smooth="yes"/>
      <point x="353" y="652"/>
      <point x="329" y="612"/>
      <point x="329" y="565" type="curve" smooth="yes"/>
      <point x="329" y="509"/>
      <point x="361" y="462"/>
      <point x="393" y="421" type="curve" smooth="yes"/>
      <point x="506" y="261" type="line"/>
      <point x="506" y="271" type="line" smooth="yes"/>
      <point x="506" y="364"/>
      <point x="583" y="430"/>
      <point x="666" y="444" type="curve"/>
      <point x="642" y="485"/>
      <point x="627" y="523"/>
      <point x="627" y="566" type="curve" smooth="yes"/>
      <point x="627" y="638"/>
      <point x="672" y="716"/>
      <point x="797" y="716" type="curve" smooth="yes"/>
      <point x="843" y="716"/>
      <point x="878" y="709"/>
      <point x="934" y="681" type="curve"/>
      <point x="908" y="622" type="line"/>
      <point x="873" y="639"/>
      <point x="845" y="652"/>
      <point x="800" y="652" type="curve" smooth="yes"/>
      <point x="731" y="652"/>
      <point x="707" y="612"/>
      <point x="707" y="565" type="curve" smooth="yes"/>
      <point x="707" y="509"/>
      <point x="736" y="462"/>
      <point x="768" y="421" type="curve" smooth="yes"/>
      <point x="891" y="256" type="line"/>
      <point x="931" y="416" type="line"/>
      <point x="1065" y="405" type="line"/>
      <point x="1065" y="342" type="line"/>
      <point x="981" y="348" type="line"/>
      <point x="979" y="339"/>
      <point x="960" y="253"/>
      <point x="943" y="185" type="curve"/>
      <point x="1081" y="0" type="line"/>
      <point x="991" y="0" type="line"/>
      <point x="915" y="102" type="line"/>
      <point x="880" y="36"/>
      <point x="813" y="-8"/>
      <point x="732" y="-8" type="curve" smooth="yes"/>
      <point x="645" y="-8"/>
      <point x="593" y="28"/>
      <point x="542" y="95" type="curve"/>
      <point x="504" y="29"/>
      <point x="439" y="-8"/>
      <point x="349" y="-8" type="curve" smooth="yes"/>
      <point x="216" y="-8"/>
      <point x="126" y="90"/>
      <point x="126" y="221" type="curve" smooth="yes"/>
      <point x="126" y="351"/>
      <point x="205" y="429"/>
      <point x="288" y="444" type="curve"/>
      <point x="264" y="485"/>
      <point x="249" y="523"/>
      <point x="249" y="566" type="curve" smooth="yes"/>
      <point x="249" y="638"/>
      <point x="294" y="716"/>
    </contour>
    <contour>
      <point x="707" y="385" type="curve"/>
      <point x="699" y="385" type="line" smooth="yes"/>
      <point x="635" y="385"/>
      <point x="569" y="341"/>
      <point x="569" y="246" type="curve" smooth="yes"/>
      <point x="569" y="172" type="line"/>
      <point x="580" y="156" type="line" smooth="yes"/>
      <point x="616" y="109"/>
      <point x="659" y="53"/>
      <point x="732" y="53" type="curve" smooth="yes"/>
      <point x="789" y="53"/>
      <point x="845" y="85"/>
      <point x="869" y="166" type="curve"/>
      <point x="710" y="381"/>
      <point x="708" y="383"/>
    </contour>
    <contour>
      <point x="329" y="385" type="curve"/>
      <point x="324" y="385" type="line" smooth="yes"/>
      <point x="253" y="386"/>
      <point x="198" y="330"/>
      <point x="198" y="221" type="curve" smooth="yes"/>
      <point x="198" y="116"/>
      <point x="264" y="53"/>
      <point x="350" y="53" type="curve" smooth="yes"/>
      <point x="416" y="53"/>
      <point x="480" y="89"/>
      <point x="499" y="153" type="curve"/>
      <point x="499" y="153"/>
      <point x="329" y="385"/>
    </contour>
  </outline>
</glyph>
<glyph name="equal_equal.liga" format="2">
  <advance width="1200"/>
  <outline>
    <contour>
      <point x="180" y="418" type="line"/>
      <point x="1020" y="418" type="line"/>
      <point x="1020" y="347" type="line"/>
      <point x="180" y="347" type="line"/>
    </contour>
    <contour>
      <point x="180" y="226" type="line"/>
      <point x="1020" y="226" type="line"/>
      <point x="1020" y="156" type="line"/>
      <point x="180" y="156" type="line"/>
    </contour>
  </outline>
</glyph>
<glyph name="r.alt" format="2">
  <advance width="600"/>
  <outline>
    <contour>
      <point x="28" y="520" type="line"/>
      <point x="241" y="520" type="line"/>
      <point x="241" y="366" type="line"/>
      <point x="262" y="462"/>
      <point x="342" y="528"/>
      <point x="449" y="528" type="curve" smooth="yes"/>
      <point x="484" y="528"/>
      <point x="513" y="524"/>
      <point x="550" y="512" type="curve"/>
      <point x="537" y="450" type="line"/>
      <point x="510" y="459"/>
      <point x="477" y="464"/>
      <point x="448" y="464" type="curve" smooth="yes"/>
      <point x="360" y="464"/>
      <point x="275" y="404"/>
      <point x="258" y="294" type="curve"/>
      <point x="258" y="0" type="line"/>
      <point x="178" y="0" type="line"/>
      <point x="178" y="456" type="line"/>
      <point x="34" y="456" type="line"/>
    </contour>
  </outline>
</glyph>
<glyph name="r.ss01" format="2">
  <advance width="600"/>
  <outline>
    <contour>
      <point x="57" y="520" type="line"/>
      <point x="266" y="520" type="line"/>
      <point x="266" y="390" type="line"/>
      <point x="293" y="452"/>
      <point x="343" y="528"/>
      <point x="454" y="528" type="curve" smooth="yes"/>
      <point x="485" y="528"/>
      <point x="511" y="525"/>
      <point x="540" y="515" type="curve"/>
      <point x="521" y="452" type="line"/>
      <point x="496" y="459"/>
      <point x="475" y="464"/>
      <point x="452" y="464" type="curve" smooth="yes"/>
      <point x="349" y="464"/>
      <point x="295" y="365"/>
      <point x="273" y="312" type="curve"/>
      <point x="273" y="0" type="line"/>
      <point x="193" y="0" type="line"/>
      <point x="193" y="456" type="line"/>
      <point x="62" y="456" type="line"/>
    </contour>
  </outline>
</glyph>
